<svg xmlns="http://www.w3.org/2000/svg" width="805" height="400"><rect width="805" height="400" x="0" y="0" fill="#FFFFFF" id="background"/><g id="viz"><g transform="translate(0,0)"><g transform="translate(10,20)"><g><path fill="#9467bd" d="M0,216.94070909602496L2.842340733686487,216.61982680961248C5.684681467372974,216.2989445232,11.369362934745949,215.65717995037497,17.054044402118922,215.4671110981C22.738725869491898,215.277042245825,28.42340733686487,215.5386691141,34.108088804237845,215.763387568125C39.79277027161081,215.98810602215,45.47745173898378,216.175916061925,51.16992044124357,217.4844557823625C56.86238914350336,218.79299550279998,62.56264508064995,221.22226490390003,68.25511378290975,221.70893339320003C73.94758248516952,222.19560188250003,79.63226395254252,220.73966946,85.31694541991548,218.5075649975C91.00162688728847,216.27546053499998,96.68630835466143,213.2671840325,102.37098982203442,211.44365402225C108.05567128940739,209.62012401200002,113.74035275678035,208.98134049400002,119.43282145904014,208.23535028275C125.12529016129992,207.48936007150004,130.8255460984465,206.63616316700003,136.5180148007063,204.3539682633083C142.21048350296607,202.07177335961669,147.89516497033904,198.36058045673335,153.57984643771204,194.3145055248042C159.26452790508503,190.268430592875,164.949209372458,185.8874736319,170.63389083983097,169.78008776300837C176.31857230720394,153.6727018941167,182.00325377457693,125.83888711730837,187.69572247683672,112.29787307940417C193.38819117909648,98.7568590415,199.0884471162431,99.50864574249998,204.78091581850288,99.30979883187497C210.47338452076266,99.11095192124998,216.15806598813563,97.96147139899999,221.8427474555086,95.26582624665001C227.52742892288157,92.57018109430003,233.21211039025457,88.32837131185003,238.8967918576275,84.79682396794585C244.5814733250005,81.26527662404169,250.26615479237344,78.44399171868334,255.95829902651295,76.97115560961667C261.6504432606525,75.49831950055,267.3500502615585,75.373932187775,273.042194495698,73.83159566555001C278.73433872983753,72.289259143325,284.4190201972105,69.32897341165001,290.10370166458347,88.59250181576665C295.78838313195644,107.85603021988334,301.4730645993294,149.34337275979166,307.1577460667024,171.86453512197082C312.84242753407534,194.38569748415,318.5271090014483,197.94067966859998,324.2195777037081,202.58686851025C329.91204640596794,207.23305735190002,335.61230234311455,212.97045285075,341.30509551349456,219.7784750631375C346.99788868387463,226.58649727552498,352.6832190874882,234.46514620145,358.36822502298145,241.6382614472625C364.0532309584748,248.811376693075,369.7379124258477,255.27895825877502,375.42259389322066,260.2459611475125C381.10727536059363,265.21296403625,386.79195682796654,268.679388248025,392.4844255302264,270.9267810757625C398.1768942324862,273.17417390350005,403.8771501696328,274.2025353472,409.56961887189254,277.22942328251247C415.2620875741524,280.256311217825,420.94676904152533,285.28172564475,426.6314505088983,291.121813309025C432.31613197627127,296.96190097330003,438.0008134436442,303.616661874925,443.6854949110172,307.8936454192088C449.37017637839017,312.1706289634925,455.05485784576314,314.06983515043504,460.74732654802284,314.0957656551088C466.4397952502827,314.1216961597825,472.14005118742926,312.2743509821875,477.8325198896891,310.9500007112704C483.5249885919489,309.6256504403533,489.2096700593218,308.82429507611414,494.89435152669483,306.6496301569737C500.5790329940678,304.4749652378333,506.26371446144077,300.92699076379165,511.9483959288137,300.20443417534165C517.6330773961868,299.48187758689164,523.3177588635598,301.58473888403336,529.0102275658195,302.0887786072321C534.7026962680793,302.5928183304309,540.4029522052259,301.49803647968673,546.0954209074856,299.51256982057333C551.7878896097454,297.52710316146005,557.4725710771185,294.6509516939775,563.1572525444914,290.9937956478313C568.8419340118644,287.336639601685,574.5266154792374,282.89847897687497,580.21097247849,277.2939561250225C585.8953294777427,271.68943327317,591.5793620088751,264.918548194275,597.2715062430146,260.1734408499013C602.9636504771541,255.4283335055275,608.6639064143008,252.709003895675,614.3566995846808,249.96344478201752C620.0494927550609,247.21788566836003,625.7348231586744,244.4460970508975,631.4198290941677,242.91871134916127C637.104835029661,241.391325647425,642.789516497034,241.10834286141503,648.4741979644069,240.59448461126127C654.1588794317798,240.0806263611075,659.8435608991527,239.33589264680998,665.5360296014126,238.84911427679125C671.2284983036724,238.3623359067725,676.928754240819,238.1335128810325,682.6212229430788,237.4055319043C688.3136916453386,236.6775509275675,693.9983731127114,235.4504119998425,699.6830545800844,234.84786220483124C705.3677360474575,234.24531240982,711.0524175148306,234.26735174752253,716.7370989822035,235.3211811437875C722.4217804495765,236.3750105400525,728.1064619169493,238.46062999488,733.7989306192093,240.88077656871496C739.491399321469,243.30092314255,745.1916552586157,246.0555968353925,750.8841239608754,248.4952427705175C756.5765926631351,250.9348887056425,762.261274130508,253.05950688304998,767.945955597881,255.48060532807753C773.6306370652541,257.901703773105,779.315318532627,260.61928248575254,782.1576592663135,261.9780718420763L785,263.3368611984L785,263.3368611984L782.1576592663135,261.9780718420763C779.315318532627,260.61928248575254,773.6306370652541,257.901703773105,767.945955597881,255.48060532807747C762.261274130508,253.05950688304998,756.5765926631351,250.9348887056425,750.8841239608754,248.4952427705175C745.1916552586157,246.0555968353925,739.491399321469,243.30092314255,733.7989306192093,240.88077656871496C728.1064619169493,238.46062999488,722.4217804495765,236.3750105400525,716.7370989822035,235.3211811437875C711.0524175148306,234.26735174752253,705.3677360474575,234.24531240982,699.6830545800844,234.84786220483124C693.9983731127114,235.4504119998425,688.3136916453386,236.6775509275675,682.6212229430788,237.4055319043C676.928754240819,238.1335128810325,671.2284983036724,238.3623359067725,665.5360296014126,238.84911427679125C659.8435608991527,239.33589264680998,654.1588794317798,240.0806263611075,648.4741979644069,240.59448461126124C642.789516497034,241.10834286141503,637.104835029661,241.391325647425,631.4198290941677,242.9187113491612C625.7348231586744,244.4460970508975,620.0494927550609,247.21788566836003,614.3566995846808,249.96611649699503C608.6639064143008,252.71434732563,602.9636504771541,255.4390203654375,597.2715062430146,260.1933772394787C591.5793620088751,264.94773411351997,585.8953294777427,271.731774821795,580.21097247849,277.34535625256996C574.5266154792374,282.958937683345,568.8419340118644,287.40205983662,563.1572525444914,291.0928376626237C557.4725710771185,294.7836154886275,551.7878896097454,297.72204898736004,546.0954209074856,299.7759742210233C540.4029522052259,301.82989945468665,534.7026962680793,302.99931642328085,529.0102275658195,302.82790160930705C523.3177588635598,302.65648679533336,517.6330773961868,301.1442401987917,511.9483959288137,302.5319781050417C506.26371446144077,303.9197160112917,500.5790329940678,308.20743842033335,494.89435152669483,311.31809432847376C489.2096700593218,314.4287502366142,483.5249885919489,316.3623396438533,477.8325198896891,319.2818729253029C472.14005118742926,322.20140620675244,466.4397952502827,326.1068833624125,460.74732654802295,329.02632350116374C455.05485784576314,331.945763639915,449.37017637839017,333.87916676175746,443.6854949110172,333.19938147894123C438.0008134436442,332.51959619612495,432.31613197627127,329.22662250865,426.6314505088983,325.7249904417C420.94676904152533,322.22335837475003,415.2620875741524,318.51306792832503,409.56961887189254,318.08091980701255C403.8771501696328,317.6487716857,398.1768942324862,320.4947658895,392.4844255302264,322.30401522876247C386.79195682796654,324.113264568025,381.10727536059363,324.88576904275004,375.42259389322066,325.4081642895125C369.7379124258477,325.93055953627504,364.0532309584748,326.20284555507504,358.36822502298145,322.5950462355125C352.6832190874882,318.98724691595004,346.99788868387463,311.499362258025,341.30509551349456,306.22708108438746C335.61230234311455,300.95479991074995,329.91204640596794,297.8981222214,324.2195777037081,294.28585952450004C318.5271090014483,290.6735968276,312.84242753407534,286.50574912315,307.1577460667024,266.66867986222087C301.4730645993294,246.8316106012917,295.78838313195644,211.32531978388337,290.10370166458347,195.0591429432667C284.4190201972105,178.79296610265,278.73433872983753,181.766903238825,273.042194495698,183.66586061005C267.3500502615585,185.564817981275,261.6504432606525,186.38879558755002,255.95829902651295,186.34556303706668C250.26615479237344,186.30233048658337,244.5814733250005,185.39188777934166,238.8967918576275,184.90115531399582C233.21211039025457,184.41042284864997,227.52742892288157,184.3394006252,221.84274745550863,184.62684156959997C216.15806598813563,184.91428251399998,210.47338452076266,185.56018662625002,204.78091581850288,185.847567656875C199.0884471162431,186.13494868749999,193.38819117909648,186.06380663649998,187.69572247683672,196.90125868190418C182.00325377457693,207.73871072730833,176.31857230720394,229.4847568691167,170.63389083983097,240.33585409580834C164.949209372458,251.1869513225,159.26452790508503,251.143099634075,153.57984643771204,253.24208230475418C147.89516497033904,255.34106497543334,142.21048350296607,259.58288200521673,136.5180148007063,262.01287800860837C130.8255460984465,264.442874012,125.12529016129992,265.061048989,119.43282145904014,267.269110574C113.74035275678035,269.477172159,108.05567128940739,273.275120352,102.3709898220344,279.24489174975C96.68630835466143,285.2146631475,91.00162688728847,293.35625775,85.31694541991548,295.63871715C79.63226395254252,297.92117655,73.94758248516952,294.3445007475,68.25511378290975,289.4674152518C62.56264508064995,284.59032975609995,56.86238914350336,278.4128345672,51.16992044124357,274.1391871126375C45.47745173898378,269.865539658075,39.79277027161081,267.49573993785,34.108088804237845,266.382024726875C28.42340733686487,265.2683095159,22.738725869491898,265.410678814175,17.054044402118922,265.73760280439996C11.369362934745949,266.064526794625,5.684681467372974,266.5760054768,2.842340733686487,266.8317448178875L0,267.08748415897503Z"><title>Tape</title></path><path fill="#1f77b4" d="M0,267.08748415897503L2.842340733686487,266.8317448178875C5.684681467372974,266.5760054768,11.369362934745949,266.064526794625,17.054044402118922,265.73760280439996C22.738725869491898,265.410678814175,28.42340733686487,265.2683095159,34.108088804237845,266.382024726875C39.79277027161081,267.49573993785,45.47745173898378,269.865539658075,51.16992044124357,274.1391871126375C56.86238914350336,278.4128345672,62.56264508064995,284.59032975609995,68.25511378290975,289.4674152518C73.94758248516952,294.3445007475,79.63226395254252,297.92117655,85.31694541991548,295.63871715C91.00162688728847,293.35625775,96.68630835466143,285.2146631475,102.37098982203442,279.24489174974997C108.05567128940739,273.275120352,113.74035275678035,269.477172159,119.43282145904014,267.269110574C125.12529016129992,265.061048989,130.8255460984465,264.442874012,136.5180148007063,262.17954467527505C142.21048350296607,259.91621533855005,147.89516497033904,256.0077316421,153.57984643771204,254.07541563808752C159.26452790508503,252.143099634075,164.949209372458,252.1869513225,170.63389083983097,252.867446350975C176.31857230720394,253.54794137945,182.00325377457693,254.865079747975,187.69572247683672,253.46958260198753C193.38819117909648,252.074085456,199.0884471162431,247.96595279550002,204.78091581850288,243.37628743412503C210.47338452076266,238.78662207275,216.15806598813563,233.71542401050002,221.8427474555086,223.98602816668335C227.52742892288157,214.2566323228667,233.21211039025457,199.86903869748332,238.8967918576275,193.1304632384125C244.5814733250005,186.39188777934166,250.26615479237344,187.30233048658337,255.95829902651295,187.34556303706668C261.6504432606525,187.38879558755002,267.3500502615585,186.564817981275,273.042194495698,184.66586061005C278.73433872983753,182.766903238825,284.4190201972105,179.79296610265,290.10370166458347,159.95447738590835C295.78838313195644,140.11598866916668,301.4730645993294,103.41294837185835,307.1577460667024,82.88850607745417C312.84242753407534,62.36406378305,318.5271090014483,58.018219491550006,324.2195777037081,54.181185073575C329.91204640596794,50.3441506556,335.61230234311455,47.01592611114999,341.30509551349456,41.547683792762506C346.99788868387463,36.07944147437501,352.6832190874882,28.47118138205002,358.36822502298145,24.855162409762528C364.0532309584748,21.239143437475033,369.7379124258477,21.615365585225025,375.42259389322066,22.10958148598752C381.10727536059363,22.603797386750013,386.79195682796654,23.21600704052501,392.4844255302264,24.686072813012498C398.1768942324862,26.156138585499985,403.8771501696328,28.484060476699963,409.56961887189254,27.13106327576246C415.2620875741524,25.77806607482496,420.94676904152533,20.74414978174997,426.6314505088983,17.13252400427498C432.31613197627127,13.520898226799986,438.0008134436442,11.331562964924984,443.6854949110172,11.631061142958742C449.37017637839017,11.9305593209925,455.05485784576314,14.71889093893502,460.74732654802284,17.890610841858773C466.4397952502827,21.062330744782525,472.14005118742926,24.617438932687506,477.8325198896891,28.789079484653755C483.5249885919489,32.96072003662001,489.2096700593218,37.748892952647516,494.89435152669483,41.631409955365434C500.5790329940678,45.513926958083346,506.26371446144077,48.49078804749166,511.9483959288137,49.68314204447582C517.6330773961868,50.87549604145999,523.3177588635598,50.28334294601999,529.0102275658195,50.76198767552125C534.7026962680793,51.240632405022495,540.4029522052259,52.790074959464995,546.0954209074856,55.034012986052495C551.7878896097454,57.27795101263998,557.4725710771185,60.21638451137247,563.1572525444914,63.907162337376214C568.8419340118644,67.59794016337997,574.5266154792374,72.04106231665499,580.21097247849,77.65464374743C585.8953294777427,83.268225178205,591.5793620088751,90.05226588647999,597.2715062430146,94.97328942718791C602.9636504771541,99.89431296789583,608.6639064143008,102.95231934103667,614.3566995846808,105.86721683633834C620.0494927550609,108.78211433164,625.7348231586744,111.55390294910251,631.4198290941677,113.08128865083876C637.104835029661,114.60867435257501,642.789516497034,114.891657138585,648.4741979644069,123.9687409657554C654.1588794317798,133.04582479292583,659.8435608991527,150.91700966125666,665.5360296014126,159.58261259891708C671.2284983036724,168.24821553657748,676.928754240819,167.7082365435675,682.6212229430788,172.03307401914165C688.3136916453386,176.35791149471584,693.9983731127114,185.54756543887416,699.6830545800844,190.8221991463921C705.3677360474575,196.09683285391,711.0524175148306,197.4564463247875,716.7370989822035,200.04417956041502C722.4217804495765,202.63191279604249,728.1064619169493,206.44776579642,733.7989306192093,209.93637863281C739.491399321469,213.4249914692,745.1916552586157,216.5863641416025,750.8841239608754,220.06876530143003C756.5765926631351,223.5511664612575,762.261274130508,227.35459610851004,767.945955597881,230.72078931847253C773.6306370652541,234.08698252843502,779.315318532627,237.01593930110752,782.1576592663135,238.48041768744375L785,239.94489607378003L785,249.17176748983L782.1576592663135,247.94966344644124C779.315318532627,246.7275594030525,773.6306370652541,244.283351316275,767.945955597881,242.14235558725C762.261274130508,240.001359858225,756.5765926631351,238.1635764869525,750.8841239608754,235.91614832141252C745.1916552586157,233.6687201558725,739.491399321469,231.011647196065,733.7989306192093,228.66265012745C728.1064619169493,226.313653058835,722.4217804495765,224.2727318814125,716.7370989822035,223.47720091098253C711.0524175148306,222.68166994055252,705.3677360474575,223.131529177115,699.6830545800844,219.8375020004796C693.9983731127114,216.54347482384415,688.3136916453386,209.50556123401086,682.6212229430788,207.30551786566164C676.928754240819,205.10547449731249,671.2284983036724,207.7433013504475,665.5360296014126,202.01901410636458C659.8435608991527,196.29472686228166,654.1588794317798,182.20832552098082,648.4741979644069,176.14721704356543C642.789516497034,170.08610856615,637.104835029661,172.05029295262,631.4198290941677,174.58119086787374C625.7348231586744,177.11208878312752,620.0494927550609,180.20970022716503,614.3566995846808,183.60821341378585C608.6639064143008,187.00672660040667,602.9636504771541,190.70614152961082,597.2715062430146,195.9277578306404C591.5793620088751,201.14937413167,585.8953294777427,207.893191804525,580.21097247849,215.77433697080997C574.5266154792374,223.655482137095,568.8419340118644,232.67395479681,563.1572525444914,240.45471077433123C557.4725710771185,248.2354667518525,551.7878896097454,254.77850604718,546.0954209074856,261.6144116457725C540.4029522052259,268.45031724436507,534.7026962680793,275.57908914622254,529.0102275658195,279.8384526424963C523.3177588635598,284.09781613877004,517.6330773961868,285.48777122946007,511.9483959288137,288.3188016185509C506.26371446144077,291.1498320076417,500.5790329940678,295.42193769513335,494.89435152669483,299.1801509425404C489.2096700593218,302.9383641899475,483.5249885919489,306.18268499727,477.8325198896891,308.72851798972874C472.14005118742926,311.2743509821875,466.4397952502827,313.1216961597825,460.74732654802295,313.0957656551088C455.05485784576314,313.06983515043504,449.37017637839017,311.1706289634925,443.6854949110172,306.8936454192087C438.0008134436442,302.616661874925,432.31613197627127,295.96190097330003,426.6314505088983,290.121813309025C420.94676904152533,284.28172564475,415.2620875741524,279.256311217825,409.56961887189254,276.2294232825125C403.8771501696328,273.2025353472,398.1768942324862,272.17417390350005,392.4844255302264,269.92678107576256C386.79195682796654,267.679388248025,381.10727536059363,264.21296403625,375.42259389322066,259.2459611475125C369.7379124258477,254.27895825877502,364.0532309584748,247.811376693075,358.36822502298145,240.63826144726252C352.6832190874882,233.46514620145,346.99788868387463,225.58649727552498,341.30509551349456,218.7784750631375C335.61230234311455,211.97045285075,329.91204640596794,206.23305735190002,324.2195777037081,201.58686851025C318.5271090014483,196.94067966859998,312.84242753407534,193.38569748415,307.1577460667024,206.3477718657292C301.4730645993294,219.30984624730831,295.78838313195644,248.7889771949167,290.10370166458347,261.44530756163334C284.4190201972105,274.10163792835004,278.73433872983753,269.93516771417507,273.042194495698,266.2700492562C267.3500502615585,262.60493079822504,261.6504432606525,259.44116409645,255.95829902651295,255.02595437346665C250.26615479237344,250.61074465048333,244.5814733250005,244.94409190629165,238.8967918576275,245.76252719438745C233.21211039025457,246.5809624824833,227.52742892288157,253.88448580286664,221.84274745550863,256.9615072019333C216.15806598813563,260.038528601,210.47338452076266,258.88904807874997,204.78091581850288,258.690201168125C199.0884471162431,258.4913542575,193.38819117909648,259.2431409585,187.69572247683672,258.4353875402625C182.00325377457693,257.62763412202503,176.31857230720394,255.26034058455002,170.63389083983097,253.94439396557496C164.949209372458,252.62844734659998,159.26452790508503,252.363847646125,153.57984643771204,254.18578964411253C147.89516497033904,256.0077316421,142.21048350296607,259.91621533855005,136.5180148007063,262.17954467527505C130.8255460984465,264.442874012,125.12529016129992,265.061048989,119.43282145904014,267.269110574C113.74035275678035,269.477172159,108.05567128940739,273.275120352,102.3709898220344,279.24489174975C96.68630835466143,285.2146631475,91.00162688728847,293.35625775,85.31694541991548,295.63871715C79.63226395254252,297.92117655,73.94758248516952,294.3445007475,68.25511378290975,289.4674152518C62.56264508064995,284.59032975609995,56.86238914350336,278.4128345672,51.16992044124357,274.1391871126375C45.47745173898378,269.865539658075,39.79277027161081,267.49573993785,34.108088804237845,266.382024726875C28.42340733686487,265.2683095159,22.738725869491898,265.410678814175,17.054044402118922,265.73760280439996C11.369362934745949,266.064526794625,5.684681467372974,266.5760054768,2.842340733686487,266.8317448178875L0,267.08748415897503Z"><title>Disc</title></path><path fill="#ff7f0e" d="M0,267.08748415897503L2.842340733686487,266.8317448178875C5.684681467372974,266.5760054768,11.369362934745949,266.064526794625,17.054044402118922,265.73760280439996C22.738725869491898,265.410678814175,28.42340733686487,265.2683095159,34.108088804237845,266.382024726875C39.79277027161081,267.49573993785,45.47745173898378,269.865539658075,51.16992044124357,274.1391871126375C56.86238914350336,278.4128345672,62.56264508064995,284.59032975609995,68.25511378290975,289.4674152518C73.94758248516952,294.3445007475,79.63226395254252,297.92117655,85.31694541991548,295.63871715C91.00162688728847,293.35625775,96.68630835466143,285.2146631475,102.37098982203442,279.24489174974997C108.05567128940739,273.275120352,113.74035275678035,269.477172159,119.43282145904014,267.269110574C125.12529016129992,265.061048989,130.8255460984465,264.442874012,136.5180148007063,262.01287800860837C142.21048350296607,259.58288200521673,147.89516497033904,255.34106497543334,153.57984643771204,253.51912297744585C159.26452790508503,251.69718097945835,164.949209372458,252.29511401326667,170.63389083983097,253.77772729890833C176.31857230720394,255.26034058455002,182.00325377457693,257.62763412202503,187.69572247683672,258.4353875402625C193.38819117909648,259.2431409585,199.0884471162431,258.4913542575,204.78091581850288,258.690201168125C210.47338452076266,258.88904807874997,216.15806598813563,260.038528601,221.8427474555086,262.73417375335C227.52742892288157,265.42981890569996,233.21211039025457,269.67162868814995,238.8967918576275,273.0365093653875C244.5814733250005,276.401390042625,250.26615479237344,278.88934161465,255.95829902651295,280.19551105705C261.6504432606525,281.50168049945,267.3500502615585,281.626067812225,273.042194495698,283.16840433445003C278.73433872983753,284.71074085667505,284.4190201972105,287.67102658835,290.10370166458347,289.094299388425C295.78838313195644,290.5175721885,301.4730645993294,290.403832056975,307.1577460667024,292.5198841369625C312.84242753407534,294.63593621695,318.5271090014483,298.98178050844996,324.2195777037081,302.818814926425C329.91204640596794,306.65584934439994,335.61230234311455,309.98407388885,341.30509551349456,315.4523162072375C346.99788868387463,320.920558525625,352.6832190874882,328.52881861795,358.36822502298145,332.1448375902375C364.0532309584748,335.760856562525,369.7379124258477,335.384634414775,375.42259389322066,334.8904185140125C381.10727536059363,334.39620261324995,386.79195682796654,333.783992959475,392.4844255302264,332.3139271869875C398.1768942324862,330.8438614145,403.8771501696328,328.5159395233,409.56961887189254,329.8689367242375C415.2620875741524,331.22193392517505,420.94676904152533,336.25585021825003,426.6314505088983,339.867475995725C432.31613197627127,343.4791017732,438.0008134436442,345.668437035075,443.6854949110172,345.36893885704126C449.37017637839017,345.0694406790075,455.05485784576314,342.281109061065,460.74732654802284,339.10938915814125C466.4397952502827,335.9376692552175,472.14005118742926,332.3825610673125,477.8325198896891,328.21092051534623C483.5249885919489,324.03927996338,489.2096700593218,319.2511070473525,494.89435152669483,315.03525671130126C500.5790329940678,310.81940637525,506.26371446144077,307.175878619175,511.9483959288137,304.29315161035C517.6330773961868,301.410424601525,523.3177588635598,299.28849833994997,529.0102275658195,292.42003075318456C534.7026962680793,285.55156316641916,540.4029522052259,273.9365542544634,546.0954209074856,264.8575301508217C551.7878896097454,255.77850604718,557.4725710771185,249.2354667518525,563.1572525444914,241.45471077433123C568.8419340118644,233.67395479681,574.5266154792374,224.655482137095,580.21097247849,216.77433697080997C585.8953294777427,208.893191804525,591.5793620088751,202.14937413167,597.2715062430146,196.92775783064042C602.9636504771541,191.70614152961082,608.6639064143008,188.00672660040667,614.3566995846808,184.60821341378585C620.0494927550609,181.20970022716503,625.7348231586744,178.11208878312752,631.4198290941677,175.58119086787374C637.104835029661,173.05029295262,642.789516497034,171.08610856615,648.4741979644069,161.4851691875496C654.1588794317798,151.8842298089492,659.8435608991527,134.64653543821834,665.5360296014126,126.1420997657229C671.2284983036724,117.6376640932275,676.928754240819,117.8664871189675,682.6212229430788,118.5944680957C688.3136916453386,119.3224490724325,693.9983731127114,120.5495880001575,699.6830545800844,127.60540927733541C705.3677360474575,134.6612305545133,711.0524175148306,147.54573418114418,716.7370989822035,157.20959138349582C722.4217804495765,166.8734485858475,728.1064619169493,173.31665936391997,733.7989306192093,179.380024574335C739.491399321469,185.44338978475,745.1916552586157,191.12690942750748,750.8841239608754,196.8868731111825C756.5765926631351,202.64683679485748,762.261274130508,208.48324451944998,767.945955597881,213.37030548792254C773.6306370652541,218.25736645639503,779.315318532627,222.19508066874752,782.1576592663135,224.16393777492377L785,226.13279488110004L785,238.94489607378003L782.1576592663135,237.4804176874438C779.315318532627,236.01593930110752,773.6306370652541,233.08698252843502,767.945955597881,229.72078931847253C762.261274130508,226.35459610851004,756.5765926631351,222.5511664612575,750.8841239608754,219.06876530143003C745.1916552586157,215.5863641416025,739.491399321469,212.4249914692,733.7989306192093,208.93637863281C728.1064619169493,205.44776579642,722.4217804495765,201.63191279604249,716.7370989822035,193.94370523674831C711.0524175148306,186.25549767745414,705.3677360474575,174.6949355592433,699.6830545800844,169.4203018517254C693.9983731127114,164.1456681442075,688.3136916453386,165.1569628473825,682.6212229430788,165.93259969547498C676.928754240819,166.7082365435675,671.2284983036724,167.24821553657748,665.5360296014126,175.9856784779979C659.8435608991527,184.72314141941834,654.1588794317798,201.65808830924917,648.4741979644069,210.75707571127455C642.789516497034,219.85606311330002,637.104835029661,221.11909102752,631.4198290941677,223.32939976314876C625.7348231586744,225.53970849877751,620.0494927550609,228.69729805581503,614.3566995846808,232.1744923754608C608.6639064143008,235.6516866951067,602.9636504771541,239.44848577736084,597.2715062430146,244.12169768074045C591.5793620088751,248.79490958412,585.8953294777427,254.34453430862501,580.21097247849,259.48346841726C574.5266154792374,264.622402525895,568.8419340118644,269.35064601866003,563.1572525444914,272.7800921892813C557.4725710771185,276.2095383599025,551.7878896097454,278.34018720838,546.0954209074856,282.80900592154666C540.4029522052259,287.27782463471334,534.7026962680793,294.08481321256914,529.0102275658195,297.9283990136096C523.3177588635598,301.77198481465,517.6330773961868,302.652167838875,511.9483959288137,304.914023229025C506.26371446144077,307.175878619175,500.5790329940678,310.81940637525,494.89435152669483,315.03525671130126C489.2096700593218,319.2511070473525,483.5249885919489,324.03927996338,477.8325198896891,328.21092051534623C472.14005118742926,332.3825610673125,466.4397952502827,335.9376692552175,460.74732654802295,339.10938915814125C455.05485784576314,342.281109061065,449.37017637839017,345.0694406790075,443.6854949110172,345.36893885704126C438.0008134436442,345.668437035075,432.31613197627127,343.4791017732,426.6314505088983,339.86747599572504C420.94676904152533,336.25585021825003,415.2620875741524,331.22193392517505,409.56961887189254,329.8689367242375C403.8771501696328,328.5159395233,398.1768942324862,330.8438614145,392.4844255302264,332.3139271869875C386.79195682796654,333.783992959475,381.10727536059363,334.39620261324995,375.42259389322066,334.8904185140125C369.7379124258477,335.384634414775,364.0532309584748,335.760856562525,358.36822502298145,332.1448375902375C352.6832190874882,328.52881861795,346.99788868387463,320.920558525625,341.30509551349456,315.45231620723746C335.61230234311455,309.98407388885,329.91204640596794,306.65584934439994,324.2195777037081,302.818814926425C318.5271090014483,298.98178050844996,312.84242753407534,294.63593621695,307.1577460667024,292.5198841369625C301.4730645993294,290.403832056975,295.78838313195644,290.5175721885,290.10370166458347,289.09429938842504C284.4190201972105,287.67102658835,278.73433872983753,284.71074085667505,273.042194495698,283.16840433445003C267.3500502615585,281.626067812225,261.6504432606525,281.50168049945,255.95829902651295,280.19551105705C250.26615479237344,278.88934161465,244.5814733250005,276.401390042625,238.8967918576275,273.0365093653875C233.21211039025457,269.67162868814995,227.52742892288157,265.42981890569996,221.84274745550863,262.73417375335C216.15806598813563,260.038528601,210.47338452076266,258.88904807874997,204.78091581850288,258.690201168125C199.0884471162431,258.4913542575,193.38819117909648,259.2431409585,187.69572247683672,258.4353875402625C182.00325377457693,257.62763412202503,176.31857230720394,255.26034058455002,170.63389083983097,253.7777272989083C164.949209372458,252.29511401326667,159.26452790508503,251.69718097945835,153.57984643771204,253.51912297744585C147.89516497033904,255.34106497543334,142.21048350296607,259.58288200521673,136.5180148007063,262.01287800860837C130.8255460984465,264.442874012,125.12529016129992,265.061048989,119.43282145904014,267.269110574C113.74035275678035,269.477172159,108.05567128940739,273.275120352,102.3709898220344,279.24489174975C96.68630835466143,285.2146631475,91.00162688728847,293.35625775,85.31694541991548,295.63871715C79.63226395254252,297.92117655,73.94758248516952,294.3445007475,68.25511378290975,289.4674152518C62.56264508064995,284.59032975609995,56.86238914350336,278.4128345672,51.16992044124357,274.1391871126375C45.47745173898378,269.865539658075,39.79277027161081,267.49573993785,34.108088804237845,266.382024726875C28.42340733686487,265.2683095159,22.738725869491898,265.410678814175,17.054044402118922,265.73760280439996C11.369362934745949,266.064526794625,5.684681467372974,266.5760054768,2.842340733686487,266.8317448178875L0,267.08748415897503Z"><title>Download</title></path><path fill="#2ca02c" d="M0,267.08748415897503L2.842340733686487,266.8317448178875C5.684681467372974,266.5760054768,11.369362934745949,266.064526794625,17.054044402118922,265.73760280439996C22.738725869491898,265.410678814175,28.42340733686487,265.2683095159,34.108088804237845,266.382024726875C39.79277027161081,267.49573993785,45.47745173898378,269.865539658075,51.16992044124357,274.1391871126375C56.86238914350336,278.4128345672,62.56264508064995,284.59032975609995,68.25511378290975,289.4674152518C73.94758248516952,294.3445007475,79.63226395254252,297.92117655,85.31694541991548,295.63871715C91.00162688728847,293.35625775,96.68630835466143,285.2146631475,102.37098982203442,279.24489174974997C108.05567128940739,273.275120352,113.74035275678035,269.477172159,119.43282145904014,267.269110574C125.12529016129992,265.061048989,130.8255460984465,264.442874012,136.5180148007063,262.01287800860837C142.21048350296607,259.58288200521673,147.89516497033904,255.34106497543334,153.57984643771204,253.51912297744585C159.26452790508503,251.69718097945835,164.949209372458,252.29511401326667,170.63389083983097,253.77772729890833C176.31857230720394,255.26034058455002,182.00325377457693,257.62763412202503,187.69572247683672,258.4353875402625C193.38819117909648,259.2431409585,199.0884471162431,258.4913542575,204.78091581850288,258.690201168125C210.47338452076266,258.88904807874997,216.15806598813563,260.038528601,221.8427474555086,262.73417375335C227.52742892288157,265.42981890569996,233.21211039025457,269.67162868814995,238.8967918576275,273.0365093653875C244.5814733250005,276.401390042625,250.26615479237344,278.88934161465,255.95829902651295,279.60069618205C261.6504432606525,280.31205074945,267.3500502615585,279.246808312225,273.042194495698,279.94657212795C278.73433872983753,280.646335943675,284.4190201972105,283.11110601235004,290.10370166458347,283.9704952696334C295.78838313195644,284.8298845269167,301.4730645993294,284.08389297280837,307.1577460667024,285.7948210479792C312.84242753407534,287.50574912315,318.5271090014483,291.6735968276,324.2195777037081,295.2858595245C329.91204640596794,298.8981222214,335.61230234311455,301.95479991074995,341.30509551349456,307.22708108438746C346.99788868387463,312.499362258025,352.6832190874882,319.98724691595004,358.36822502298145,323.59504623551254C364.0532309584748,327.20284555507504,369.7379124258477,326.93055953627504,375.42259389322066,326.40816428951257C381.10727536059363,325.88576904275004,386.79195682796654,325.113264568025,392.4844255302264,323.30401522876247C398.1768942324862,321.4947658895,403.8771501696328,318.6487716857,409.56961887189254,319.0809198070125C415.2620875741524,319.51306792832503,420.94676904152533,323.22335837475003,426.6314505088983,326.7249904417C432.31613197627127,330.22662250865,438.0008134436442,333.51959619612495,443.6854949110172,334.19938147894123C449.37017637839017,334.87916676175746,455.05485784576314,332.945763639915,460.74732654802284,330.02632350116374C466.4397952502827,327.1068833624125,472.14005118742926,323.20140620675244,477.8325198896891,318.14835335084456C483.5249885919489,313.0953004949367,489.2096700593218,306.89467193878085,494.89435152669483,301.65830481695707C500.5790329940678,296.42193769513335,506.26371446144077,292.1498320076417,511.9483959288137,289.3188016185509C517.6330773961868,286.48777122946007,523.3177588635598,285.09781613877004,529.0102275658195,284.03000109488795C534.7026962680793,282.96218605100586,540.4029522052259,282.2165110539317,546.0954209074856,280.77834913115584C551.7878896097454,279.34018720838,557.4725710771185,277.2095383599025,563.1572525444914,273.7800921892813C568.8419340118644,270.35064601866003,574.5266154792374,265.622402525895,580.21097247849,261.6042341884267C585.8953294777427,257.58606585095833,591.5793620088751,254.27797266878665,597.2715062430146,249.60476076540706C602.9636504771541,244.9315488620275,608.6639064143008,238.89321823744,614.3566995846808,235.81491752154417C620.0494927550609,232.73661680564837,625.7348231586744,232.61834599844417,631.4198290941677,232.43184536773208C637.104835029661,232.24534473702,642.789516497034,231.9906142828,648.4741979644069,231.51260928602377C654.1588794317798,231.03460428924754,659.8435608991527,230.33332474991502,665.5360296014126,229.77946379193125C671.2284983036724,229.2256028339475,676.928754240819,228.8191604573125,682.6212229430788,227.977384324495C688.3136916453386,227.1356081916775,693.9983731127114,225.8584983026775,699.6830545800844,226.07618928944544C705.3677360474575,226.29388027621334,711.0524175148306,228.00637213874916,716.7370989822035,229.92808528183335C722.4217804495765,231.8497984249175,728.1064619169493,233.98073284855002,733.7989306192093,236.4441004214325C739.491399321469,238.907467994315,745.1916552586157,241.70326871644752,750.8841239608754,244.0716973343675C756.5765926631351,246.44012595228753,762.261274130508,248.381182465995,767.945955597881,250.75426097408752C773.6306370652541,253.12733948218002,779.315318532627,255.93243998465752,782.1576592663135,257.3349902358962L785,258.737540487135L785,263.3368611984L782.1576592663135,261.9780718420763C779.315318532627,260.61928248575254,773.6306370652541,257.901703773105,767.945955597881,255.48060532807747C762.261274130508,253.05950688304998,756.5765926631351,250.9348887056425,750.8841239608754,248.4952427705175C745.1916552586157,246.0555968353925,739.491399321469,243.30092314255,733.7989306192093,240.88077656871496C728.1064619169493,238.46062999488,722.4217804495765,236.3750105400525,716.7370989822035,234.4813268111633C711.0524175148306,232.58764308227418,705.3677360474575,230.88589507932338,699.6830545800844,230.73541999870542C693.9983731127114,230.58494491808747,688.3136916453386,231.9857427598025,682.6212229430788,232.9262877543825C676.928754240819,233.86683274896248,671.2284983036724,234.3471248964075,665.5360296014126,235.06792742025877C659.8435608991527,235.78872994411003,654.1588794317798,236.7500428443675,648.4741979644069,237.45720902558628C642.789516497034,238.16437520680498,637.104835029661,238.61739466898499,631.4198290941677,239.05536238944705C625.7348231586744,239.49333010990915,620.0494927550609,239.9162460886533,614.3566995846808,242.58552734966415C608.6639064143008,245.25480861067498,602.9636504771541,250.1704551539525,597.2715062430146,255.10796944672458C591.5793620088751,260.04548373949666,585.8953294777427,265.0048657817633,580.21097247849,269.7807743385992C574.5266154792374,274.556682895435,568.8419340118644,279.14911796684004,563.1572525444914,283.07757981518375C557.4725710771185,287.00604166352747,551.7878896097454,290.27053028881,546.0954209074856,292.34136679549835C540.4029522052259,294.4122033021867,534.7026962680793,295.2893876902808,529.0102275658195,295.7633872528904C523.3177588635598,296.2373868155,517.6330773961868,296.308201552625,511.9483959288137,298.1175961582083C506.26371446144077,299.92699076379165,500.5790329940678,303.4749652378333,494.89435152669483,308.5041659210845C489.2096700593218,313.5333666043358,483.5249885919489,320.04379349679664,477.8325198896891,325.0883384903296C472.14005118742926,330.1328834838625,466.4397952502827,333.7115465784675,460.74732654802295,336.8664394399413C455.05485784576314,340.021332301415,449.37017637839017,342.7524549297575,443.6854949110172,343.01829022744124C438.0008134436442,343.2841255251249,432.31613197627127,341.08467349215,426.6314505088983,337.4277068487C420.94676904152533,333.77074020525,415.2620875741524,328.656258951325,409.56961887189254,327.1939509815125C403.8771501696328,325.7316430117,398.1768942324862,327.92150832600004,392.4844255302264,329.36482910401253C386.79195682796654,330.808149882025,381.10727536059363,331.50492612375007,375.42259389322066,332.06221797751255C369.7379124258477,332.619509831275,364.0532309584748,333.03731729707505,358.36822502298145,329.4490671157625C352.6832190874882,325.86081693445,346.99788868387463,318.266509106025,341.30509551349456,312.7146046638875C335.61230234311455,307.16270022174996,329.91204640596794,303.65319916589993,324.2195777037081,299.65168758324995C318.5271090014483,295.65017600059997,312.84242753407534,291.15665389115,307.1577460667024,289.5712562594791C301.4730645993294,287.98585862780834,295.78838313195644,289.3085854739167,290.10370166458347,288.48980603113336C284.4190201972105,287.67102658835,278.73433872983753,284.71074085667505,273.042194495698,283.16840433445003C267.3500502615585,281.626067812225,261.6504432606525,281.50168049945,255.95829902651295,280.19551105705C250.26615479237344,278.88934161465,244.5814733250005,276.401390042625,238.8967918576275,273.0365093653875C233.21211039025457,269.67162868814995,227.52742892288157,265.42981890569996,221.84274745550863,262.73417375335C216.15806598813563,260.038528601,210.47338452076266,258.88904807874997,204.78091581850288,258.690201168125C199.0884471162431,258.4913542575,193.38819117909648,259.2431409585,187.69572247683672,258.4353875402625C182.00325377457693,257.62763412202503,176.31857230720394,255.26034058455002,170.63389083983097,253.7777272989083C164.949209372458,252.29511401326667,159.26452790508503,251.69718097945835,153.57984643771204,253.51912297744585C147.89516497033904,255.34106497543334,142.21048350296607,259.58288200521673,136.5180148007063,262.01287800860837C130.8255460984465,264.442874012,125.12529016129992,265.061048989,119.43282145904014,267.269110574C113.74035275678035,269.477172159,108.05567128940739,273.275120352,102.3709898220344,279.24489174975C96.68630835466143,285.2146631475,91.00162688728847,293.35625775,85.31694541991548,295.63871715C79.63226395254252,297.92117655,73.94758248516952,294.3445007475,68.25511378290975,289.4674152518C62.56264508064995,284.59032975609995,56.86238914350336,278.4128345672,51.16992044124357,274.1391871126375C45.47745173898378,269.865539658075,39.79277027161081,267.49573993785,34.108088804237845,266.382024726875C28.42340733686487,265.2683095159,22.738725869491898,265.410678814175,17.054044402118922,265.73760280439996C11.369362934745949,266.064526794625,5.684681467372974,266.5760054768,2.842340733686487,266.8317448178875L0,267.08748415897503Z"><title>Other</title></path><path fill="#d62728" d="M0,267.08748415897503L2.842340733686487,266.8317448178875C5.684681467372974,266.5760054768,11.369362934745949,266.064526794625,17.054044402118922,265.73760280439996C22.738725869491898,265.410678814175,28.42340733686487,265.2683095159,34.108088804237845,266.382024726875C39.79277027161081,267.49573993785,45.47745173898378,269.865539658075,51.16992044124357,274.1391871126375C56.86238914350336,278.4128345672,62.56264508064995,284.59032975609995,68.25511378290975,289.4674152518C73.94758248516952,294.3445007475,79.63226395254252,297.92117655,85.31694541991548,295.63871715C91.00162688728847,293.35625775,96.68630835466143,285.2146631475,102.37098982203442,279.24489174974997C108.05567128940739,273.275120352,113.74035275678035,269.477172159,119.43282145904014,267.269110574C125.12529016129992,265.061048989,130.8255460984465,264.442874012,136.5180148007063,262.01287800860837C142.21048350296607,259.58288200521673,147.89516497033904,255.34106497543334,153.57984643771204,253.51912297744585C159.26452790508503,251.69718097945835,164.949209372458,252.29511401326667,170.63389083983097,253.77772729890833C176.31857230720394,255.26034058455002,182.00325377457693,257.62763412202503,187.69572247683672,258.4353875402625C193.38819117909648,259.2431409585,199.0884471162431,258.4913542575,204.78091581850288,258.690201168125C210.47338452076266,258.88904807874997,216.15806598813563,260.038528601,221.8427474555086,262.73417375335C227.52742892288157,265.42981890569996,233.21211039025457,269.67162868814995,238.8967918576275,272.8698426987208C244.5814733250005,276.0680567092916,250.26615479237344,278.2226749479833,255.95829902651295,279.5288443903833C261.6504432606525,280.8350138327833,267.3500502615585,281.29273447889165,273.042194495698,283.00173766778335C278.73433872983753,284.71074085667505,284.4190201972105,287.67102658835,290.10370166458347,289.094299388425C295.78838313195644,290.5175721885,301.4730645993294,290.403832056975,307.1577460667024,292.5198841369625C312.84242753407534,294.63593621695,318.5271090014483,298.98178050844996,324.2195777037081,302.818814926425C329.91204640596794,306.65584934439994,335.61230234311455,309.98407388885,341.30509551349456,315.4523162072375C346.99788868387463,320.920558525625,352.6832190874882,328.52881861795,358.36822502298145,332.1448375902375C364.0532309584748,335.760856562525,369.7379124258477,335.384634414775,375.42259389322066,334.8904185140125C381.10727536059363,334.39620261324995,386.79195682796654,333.783992959475,392.4844255302264,332.3139271869875C398.1768942324862,330.8438614145,403.8771501696328,328.5159395233,409.56961887189254,329.8689367242375C415.2620875741524,331.22193392517505,420.94676904152533,336.25585021825003,426.6314505088983,339.867475995725C432.31613197627127,343.4791017732,438.0008134436442,345.668437035075,443.6854949110172,345.36893885704126C449.37017637839017,345.0694406790075,455.05485784576314,342.281109061065,460.74732654802284,339.10938915814125C466.4397952502827,335.9376692552175,472.14005118742926,332.3825610673125,477.8325198896891,328.21092051534623C483.5249885919489,324.03927996338,489.2096700593218,319.2511070473525,494.89435152669483,314.8685900446346C500.5790329940678,310.48607304191665,506.26371446144077,306.50921195250834,511.9483959288137,304.96017849593335C517.6330773961868,303.41114503935836,523.3177588635598,304.28993921561664,529.0102275658195,302.9570505574487C534.7026962680793,301.6241618992808,540.4029522052259,298.0795904066867,546.0954209074856,294.67506034774834C551.7878896097454,291.27053028881,557.4725710771185,288.00604166352747,563.1572525444914,284.07757981518375C568.8419340118644,280.14911796684004,574.5266154792374,275.556682895435,580.21097247849,268.80730486566335C585.8953294777427,262.0579268358917,591.5793620088751,253.15160584775336,597.2715062430146,248.21409155498125C602.9636504771541,243.2765772622092,608.6639064143008,242.30786966480332,614.3566995846808,238.8306753451575C620.0494927550609,235.35348102551166,625.7348231586744,229.36779998362582,631.4198290941677,225.74344550557294C637.104835029661,222.11909102752,642.789516497034,220.85606311330002,648.4741979644069,218.85589799027375C654.1588794317798,216.85573286724753,659.8435608991527,214.11843053541497,665.5360296014126,211.43086594293126C671.2284983036724,208.7433013504475,676.928754240819,206.10547449731249,682.6212229430788,198.23101537022083C688.3136916453386,190.35655624312918,693.9983731127114,177.24546484208085,699.6830545800844,163.61929172051376C705.3677360474575,149.99311859894667,711.0524175148306,135.85186375686084,716.7370989822035,127.73842660840417C722.4217804495765,119.62498945994751,728.1064619169493,117.53937000512,733.7989306192093,115.119223431285C739.491399321469,112.69907685745,745.1916552586157,109.9444031646075,750.8841239608754,107.5047572294825C756.5765926631351,105.06511129435751,762.261274130508,102.94049311695001,767.945955597881,100.5193946719225C773.6306370652541,98.098296226895,779.315318532627,95.38071751424748,782.1576592663135,94.02192815792374L785,92.66313880159998L785,225.13279488110004L782.1576592663135,223.16393777492377C779.315318532627,221.19508066874752,773.6306370652541,217.25736645639503,767.945955597881,212.37030548792248C762.261274130508,207.48324451944998,756.5765926631351,201.64683679485748,750.8841239608754,195.8868731111825C745.1916552586157,190.12690942750748,739.491399321469,184.44338978475,733.7989306192093,178.380024574335C728.1064619169493,172.31665936391997,722.4217804495765,165.8734485858475,716.7370989822035,168.36967345935417C711.0524175148306,170.86589833286084,705.3677360474575,182.30155885794667,699.6830545800844,193.63197223676377C693.9983731127114,204.96238561558084,688.3136916453386,216.18755184812915,682.6212229430788,222.00335615272084C676.928754240819,227.8191604573125,671.2284983036724,228.2256028339475,665.5360296014126,228.77946379193125C659.8435608991527,229.33332474991502,654.1588794317798,230.03460428924754,648.4741979644069,230.51260928602377C642.789516497034,230.9906142828,637.104835029661,231.24534473702,631.4198290941677,234.0901240810729C625.7348231586744,236.93490342512584,620.0494927550609,242.36973165901168,614.3566995846808,245.44803237490748C608.6639064143008,248.52633309080332,602.9636504771541,249.24810628870918,597.2715062430146,253.94112858255627C591.5793620088751,258.63415087640334,585.8953294777427,267.29842226619166,580.21097247849,273.85141477046335C574.5266154792374,280.404407274735,568.8419340118644,284.84612089349,563.1572525444914,288.4965446270838C557.4725710771185,292.1469683606775,551.7878896097454,295.00610220911,546.0954209074856,297.67626481530584C540.4029522052259,300.3464274215017,534.7026962680793,302.82761878546086,529.0102275658195,303.60547125305374C523.3177588635598,304.38332372064673,517.6330773961868,303.4578372918734,511.9483959288137,304.9835246221908C506.26371446144077,306.50921195250834,500.5790329940678,310.48607304191665,494.89435152669483,314.8685900446346C489.2096700593218,319.2511070473525,483.5249885919489,324.03927996338,477.8325198896891,328.21092051534623C472.14005118742926,332.3825610673125,466.4397952502827,335.9376692552175,460.74732654802295,339.10938915814125C455.05485784576314,342.281109061065,449.37017637839017,345.0694406790075,443.6854949110172,345.36893885704126C438.0008134436442,345.668437035075,432.31613197627127,343.4791017732,426.6314505088983,339.86747599572504C420.94676904152533,336.25585021825003,415.2620875741524,331.22193392517505,409.56961887189254,329.8689367242375C403.8771501696328,328.5159395233,398.1768942324862,330.8438614145,392.4844255302264,332.3139271869875C386.79195682796654,333.783992959475,381.10727536059363,334.39620261324995,375.42259389322066,334.8904185140125C369.7379124258477,335.384634414775,364.0532309584748,335.760856562525,358.36822502298145,332.1448375902375C352.6832190874882,328.52881861795,346.99788868387463,320.920558525625,341.30509551349456,315.45231620723746C335.61230234311455,309.98407388885,329.91204640596794,306.65584934439994,324.2195777037081,302.818814926425C318.5271090014483,298.98178050844996,312.84242753407534,294.63593621695,307.1577460667024,292.5198841369625C301.4730645993294,290.403832056975,295.78838313195644,290.5175721885,290.10370166458347,289.09429938842504C284.4190201972105,287.67102658835,278.73433872983753,284.71074085667505,273.042194495698,283.00173766778335C267.3500502615585,281.29273447889165,261.6504432606525,280.8350138327833,255.95829902651295,279.5288443903833C250.26615479237344,278.2226749479833,244.5814733250005,276.0680567092916,238.8967918576275,272.8698426987208C233.21211039025457,269.67162868814995,227.52742892288157,265.42981890569996,221.84274745550863,262.73417375335C216.15806598813563,260.038528601,210.47338452076266,258.88904807874997,204.78091581850288,258.690201168125C199.0884471162431,258.4913542575,193.38819117909648,259.2431409585,187.69572247683672,258.4353875402625C182.00325377457693,257.62763412202503,176.31857230720394,255.26034058455002,170.63389083983097,253.7777272989083C164.949209372458,252.29511401326667,159.26452790508503,251.69718097945835,153.57984643771204,253.51912297744585C147.89516497033904,255.34106497543334,142.21048350296607,259.58288200521673,136.5180148007063,262.01287800860837C130.8255460984465,264.442874012,125.12529016129992,265.061048989,119.43282145904014,267.269110574C113.74035275678035,269.477172159,108.05567128940739,273.275120352,102.3709898220344,279.24489174975C96.68630835466143,285.2146631475,91.00162688728847,293.35625775,85.31694541991548,295.63871715C79.63226395254252,297.92117655,73.94758248516952,294.3445007475,68.25511378290975,289.4674152518C62.56264508064995,284.59032975609995,56.86238914350336,278.4128345672,51.16992044124357,274.1391871126375C45.47745173898378,269.865539658075,39.79277027161081,267.49573993785,34.108088804237845,266.382024726875C28.42340733686487,265.2683095159,22.738725869491898,265.410678814175,17.054044402118922,265.73760280439996C11.369362934745949,266.064526794625,5.684681467372974,266.5760054768,2.842340733686487,266.8317448178875L0,267.08748415897503Z"><title>Streaming</title></path><path fill="#8c564b" d="M0,91.91251584102503L2.842340733686487,92.16825518211253C5.684681467372974,92.42399452320002,11.369362934745949,92.935473205375,17.054044402118922,93.26239719560003C22.738725869491898,93.58932118582503,28.42340733686487,93.73169048410004,34.108088804237845,92.61797527312503C39.79277027161081,91.50426006215002,45.47745173898378,89.13446034192502,51.16992044124357,84.86081288736251C56.86238914350336,80.5871654328,62.56264508064995,74.40967024390001,68.25511378290975,69.53258474820001C73.94758248516952,64.65549925250002,79.63226395254252,61.07882345000002,85.31694541991548,63.361282850000016C91.00162688728847,65.64374225000002,96.68630835466143,73.78533685250001,102.37098982203442,79.75510825024999C108.05567128940739,85.724879648,113.74035275678035,89.52282784099998,119.43282145904014,91.73088942599999C125.12529016129992,93.93895101099999,130.8255460984465,94.557125988,136.5180148007063,96.65378865805833C142.21048350296607,98.75045132811665,147.89516497033904,102.32560169123333,153.57984643771204,103.98087702255417C159.26452790508503,105.63615235387499,164.949209372458,105.3715526534,170.63389083983097,118.88687140859167C176.31857230720394,132.40219016378333,182.00325377457693,159.69742737464165,187.69572247683672,173.38061700557083C193.38819117909648,187.06380663649998,199.0884471162431,187.13494868749999,204.78091581850288,186.847567656875C210.47338452076266,186.56018662625002,216.15806598813563,185.91428251399998,221.8427474555086,194.75950725126665C227.52742892288157,203.60473198853333,233.21211039025457,221.94108557531663,238.8967918576275,233.94258874080415C244.5814733250005,245.94409190629165,250.26615479237344,251.61074465048333,255.95829902651295,256.0259543734667C261.6504432606525,260.44116409645,267.3500502615585,263.60493079822504,273.042194495698,267.2700492562C278.73433872983753,270.93516771417507,284.4190201972105,275.10163792835004,290.10370166458347,278.5840436419667C295.78838313195644,282.0664493555833,301.4730645993294,284.86479056864164,307.1577460667024,288.51072222989586C312.84242753407534,292.15665389115,318.5271090014483,296.65017600059997,324.2195777037081,300.65168758324995C329.91204640596794,304.65319916589993,335.61230234311455,308.16270022174996,341.30509551349456,313.7146046638875C346.99788868387463,319.266509106025,352.6832190874882,326.86081693445,358.36822502298145,330.4490671157625C364.0532309584748,334.03731729707505,369.7379124258477,333.619509831275,375.42259389322066,333.06221797751255C381.10727536059363,332.50492612375007,386.79195682796654,331.808149882025,392.4844255302264,330.36482910401253C398.1768942324862,328.92150832600004,403.8771501696328,326.7316430117,409.56961887189254,328.1939509815125C415.2620875741524,329.656258951325,420.94676904152533,334.77074020525,426.6314505088983,338.4277068487C432.31613197627127,342.08467349215,438.0008134436442,344.2841255251249,443.6854949110172,344.01829022744124C449.37017637839017,343.7524549297575,455.05485784576314,341.021332301415,460.74732654802284,337.8664394399413C466.4397952502827,334.7115465784675,472.14005118742926,331.1328834838625,477.8325198896891,327.0003753432462C483.5249885919489,322.86786720262995,489.2096700593218,318.1815140160025,494.89435152669483,313.69447621816795C500.5790329940678,309.20743842033335,506.26371446144077,304.9197160112917,511.9483959288137,302.98582283813334C517.6330773961868,301.05192966497503,523.3177588635598,301.47186572770005,529.0102275658195,301.1774061369154C534.7026962680793,300.8829465461308,540.4029522052259,299.8740913018367,546.0954209074856,297.94009675547335C551.7878896097454,296.00610220911,557.4725710771185,293.1469683606775,563.1572525444914,289.4965446270838C568.8419340118644,285.84612089349,574.5266154792374,281.404407274735,580.21097247849,275.7041184722325C585.8953294777427,270.00382966973,591.5793620088751,263.04496568348003,597.2715062430146,258.35194338963294C602.9636504771541,253.65892109578581,608.6639064143008,251.23174049434166,614.3566995846808,248.56245923333077C620.0494927550609,245.89317797232,625.7348231586744,242.98179605174246,631.4198290941677,241.29959536036372C637.104835029661,239.61739466898499,642.789516497034,239.16437520680498,648.4741979644069,238.45720902558628C654.1588794317798,237.7500428443675,659.8435608991527,236.78872994411003,665.5360296014126,236.06792742025877C671.2284983036724,235.3471248964075,676.928754240819,234.86683274896248,682.6212229430788,233.9262877543825C688.3136916453386,232.9857427598025,693.9983731127114,231.58494491808747,699.6830545800844,229.72582326849957C705.3677360474575,227.86670161891166,711.0524175148306,225.54925616145087,716.7370989822035,225.41099402143172C722.4217804495765,225.2727318814125,728.1064619169493,227.313653058835,733.7989306192093,229.66265012744998C739.491399321469,232.011647196065,745.1916552586157,234.6687201558725,750.8841239608754,236.91614832141252C756.5765926631351,239.1635764869525,762.261274130508,241.001359858225,767.945955597881,243.14235558725C773.6306370652541,245.283351316275,779.315318532627,247.7275594030525,782.1576592663135,248.94966344644126L785,250.17176748983L785,257.737540487135L782.1576592663135,256.3349902358962C779.315318532627,254.93243998465752,773.6306370652541,252.12733948218002,767.945955597881,249.75426097408754C762.261274130508,247.381182465995,756.5765926631351,245.44012595228753,750.8841239608754,243.0716973343675C745.1916552586157,240.70326871644752,739.491399321469,237.907467994315,733.7989306192093,235.44410042143252C728.1064619169493,232.98073284855002,722.4217804495765,230.8497984249175,716.7370989822035,230.7017327249067C711.0524175148306,230.55366702489584,705.3677360474575,232.38847004850666,699.6830545800844,233.91944102417457C693.9983731127114,235.4504119998425,688.3136916453386,236.6775509275675,682.6212229430788,237.4055319043C676.928754240819,238.1335128810325,671.2284983036724,238.3623359067725,665.5360296014126,238.84911427679125C659.8435608991527,239.33589264680998,654.1588794317798,240.0806263611075,648.4741979644069,240.59448461126124C642.789516497034,241.10834286141503,637.104835029661,241.391325647425,631.4198290941677,242.9187113491612C625.7348231586744,244.4460970508975,620.0494927550609,247.21788566836003,614.3566995846808,249.79677811535086C608.6639064143008,252.3756705623417,602.9636504771541,254.76166683886083,597.2715062430146,259.3401075165679C591.5793620088751,263.918548194275,585.8953294777427,270.68943327317,580.21097247849,276.2939561250225C574.5266154792374,281.89847897687497,568.8419340118644,286.336639601685,563.1572525444914,289.99379564783123C557.4725710771185,293.6509516939775,551.7878896097454,296.52710316146005,546.0954209074856,298.51256982057333C540.4029522052259,300.49803647968673,534.7026962680793,301.5928183304309,529.0102275658195,301.9476677027904C523.3177588635598,302.30251707515004,517.6330773961868,301.91743396912506,511.9483959288137,303.8799896274833C506.26371446144077,305.8425452858417,500.5790329940678,310.15273970858334,494.89435152669483,314.70192337796794C489.2096700593218,319.2511070473525,483.5249885919489,324.03927996338,477.8325198896891,328.21092051534623C472.14005118742926,332.3825610673125,466.4397952502827,335.9376692552175,460.74732654802295,339.10938915814125C455.05485784576314,342.281109061065,449.37017637839017,345.0694406790075,443.6854949110172,345.36893885704126C438.0008134436442,345.668437035075,432.31613197627127,343.4791017732,426.6314505088983,339.86747599572504C420.94676904152533,336.25585021825003,415.2620875741524,331.22193392517505,409.56961887189254,329.8689367242375C403.8771501696328,328.5159395233,398.1768942324862,330.8438614145,392.4844255302264,332.3139271869875C386.79195682796654,333.783992959475,381.10727536059363,334.39620261324995,375.42259389322066,334.8904185140125C369.7379124258477,335.384634414775,364.0532309584748,335.760856562525,358.36822502298145,332.1448375902375C352.6832190874882,328.52881861795,346.99788868387463,320.920558525625,341.30509551349456,315.45231620723746C335.61230234311455,309.98407388885,329.91204640596794,306.65584934439994,324.2195777037081,302.818814926425C318.5271090014483,298.98178050844996,312.84242753407534,294.63593621695,307.1577460667024,291.5106447637958C301.4730645993294,288.3853533106417,295.78838313195644,286.48061469583337,290.10370166458347,284.2958603540917C284.4190201972105,282.11110601235004,278.73433872983753,279.646335943675,273.042194495698,278.94657212795C267.3500502615585,278.246808312225,261.6504432606525,279.31205074945,255.95829902651295,278.76736284871663C250.26615479237344,278.2226749479833,244.5814733250005,276.0680567092916,238.8967918576275,267.27921216955417C233.21211039025457,258.49036762981666,227.52742892288157,243.06729678903335,221.84274745550863,237.89136039976665C216.15806598813563,232.71542401050002,210.47338452076266,237.78662207275,204.78091581850288,242.37628743412503C199.0884471162431,246.96595279550002,193.38819117909648,251.074085456,187.69572247683672,240.68220154532082C182.00325377457693,230.2903176346417,176.31857230720394,205.39841715278337,170.63389083983097,195.14294539234166C164.949209372458,184.8874736319,159.26452790508503,189.268430592875,153.57984643771204,193.3145055248042C147.89516497033904,197.36058045673335,142.21048350296607,201.07177335961669,136.5180148007063,203.35396826330836C130.8255460984465,205.63616316700003,125.12529016129992,206.48936007150004,119.43282145904014,207.23535028275C113.74035275678035,207.98134049400002,108.05567128940739,208.62012401200002,102.3709898220344,210.44365402225003C96.68630835466143,212.2671840325,91.00162688728847,215.27546053499998,85.31694541991548,217.5075649975C79.63226395254252,219.73966946,73.94758248516952,221.19560188250003,68.25511378290975,220.70893339320003C62.56264508064995,220.22226490390003,56.86238914350336,217.79299550279998,51.16992044124357,216.4844557823625C45.47745173898378,215.175916061925,39.79277027161081,214.98810602215,34.108088804237845,214.763387568125C28.42340733686487,214.5386691141,22.738725869491898,214.277042245825,17.054044402118922,214.4671110981C11.369362934745949,214.65717995037497,5.684681467372974,215.2989445232,2.842340733686487,215.61982680961248L0,215.94070909602496Z"><title>Vinyl</title></path></g><g id="xAxis" transform="translate(0,360)" fill="none" font-size="10" font-family="sans-serif" text-anchor="middle"><path class="domain" stroke="currentColor" d="M0,0H785"/><g class="tick" opacity="1" transform="translate(34.108088804237845,0)"><line stroke="currentColor" y2="6"/><text fill="currentColor" y="9" dy="0.71em">1975</text></g><g class="tick" opacity="1" transform="translate(119.42503422415332,0)"><line stroke="currentColor" y2="6"/><text fill="currentColor" y="9" dy="0.71em">1980</text></g><g class="tick" opacity="1" transform="translate(204.7887030533897,0)"><line stroke="currentColor" y2="6"/><text fill="currentColor" y="9" dy="0.71em">1985</text></g><g class="tick" opacity="1" transform="translate(290.10370166458347,0)"><line stroke="currentColor" y2="6"/><text fill="currentColor" y="9" dy="0.71em">1990</text></g><g class="tick" opacity="1" transform="translate(375.42259389322066,0)"><line stroke="currentColor" y2="6"/><text fill="currentColor" y="9" dy="0.71em">1995</text></g><g class="tick" opacity="1" transform="translate(460.7395393131361,0)"><line stroke="currentColor" y2="6"/><text fill="currentColor" y="9" dy="0.71em">2000</text></g><g class="tick" opacity="1" transform="translate(546.1032081423724,0)"><line stroke="currentColor" y2="6"/><text fill="currentColor" y="9" dy="0.71em">2005</text></g><g class="tick" opacity="1" transform="translate(631.420153562288,0)"><line stroke="currentColor" y2="6"/><text fill="currentColor" y="9" dy="0.71em">2010</text></g><g class="tick" opacity="1" transform="translate(716.7370989822035,0)"><line stroke="currentColor" y2="6"/><text fill="currentColor" y="9" dy="0.71em">2015</text></g></g><text y="356" x="785" text-anchor="end" style="font-family: Arial, sans-serif; font-size: 12px; fill: rgb(123, 123, 123); font-weight: bold;">Year</text><text x="4" text-anchor="start" dominant-baseline="hanging" style="font-family: Arial, sans-serif; font-size: 12px; fill: rgb(123, 123, 123); font-weight: bold;">Revenues in millions (Adjusted for inflation)</text><g id="labels"><text x="255.95083625974644" y="131.417740003575" text-anchor="middle" alignment-baseline="middle" style="font-family: Arial, sans-serif; font-size: 10px; fill: black; font-weight: bold;">Tape</text><text x="443.6854949110172" y="159.2068252398" text-anchor="middle" alignment-baseline="middle" style="font-family: Arial, sans-serif; font-size: 10px; fill: black; font-weight: bold;">Disc</text><text x="665.5282423665258" y="142.5985177985375" text-anchor="middle" alignment-baseline="middle" style="font-family: Arial, sans-serif; font-size: 10px; fill: black; font-weight: bold;">Download</text><text x="529.0024403309327" y="289.9372165632275" text-anchor="middle" alignment-baseline="middle" style="font-family: Arial, sans-serif; font-size: 10px; fill: black; font-weight: bold;">Other</text><text x="785" y="158.89796684135" text-anchor="end" alignment-baseline="middle" style="font-family: Arial, sans-serif; font-size: 10px; fill: black; font-weight: bold;">Streaming</text><text x="85.31694541991548" y="137.8929423425" text-anchor="middle" alignment-baseline="middle" style="font-family: Arial, sans-serif; font-size: 10px; fill: black; font-weight: bold;">Vinyl</text></g></g><text x="4" y="4" style="font-family: Arial, sans-serif; font-size: 12px; fill: black; font-weight: bold; dominant-baseline: hanging;"/></g></g></svg>