<?xml version="1.0" encoding="UTF-8" standalone="no"?>
<svg
   width="805"
   height="400"
   version="1.1"
   id="svg24"
   sodipodi:docname="Bumpchat-Inkscape.svg"
   inkscape:version="1.4.2 (f4327f4, 2025-05-13)"
   xmlns:inkscape="http://www.inkscape.org/namespaces/inkscape"
   xmlns:sodipodi="http://sodipodi.sourceforge.net/DTD/sodipodi-0.dtd"
   xmlns="http://www.w3.org/2000/svg"
   xmlns:svg="http://www.w3.org/2000/svg">
  <defs
     id="defs24" />
  <sodipodi:namedview
     id="namedview24"
     pagecolor="#ffffff"
     bordercolor="#000000"
     borderopacity="0.25"
     inkscape:showpageshadow="2"
     inkscape:pageopacity="0.0"
     inkscape:pagecheckerboard="0"
     inkscape:deskcolor="#d1d1d1"
     inkscape:zoom="2.0325"
     inkscape:cx="402.46002"
     inkscape:cy="200"
     inkscape:window-width="1920"
     inkscape:window-height="1094"
     inkscape:window-x="-11"
     inkscape:window-y="-11"
     inkscape:window-maximized="1"
     inkscape:current-layer="svg24" />
  <rect
     width="805"
     height="400"
     x="0"
     y="0"
     fill="#FFFFFF"
     id="background" />
  <g
     id="viz">
    <g
       transform="translate(0,0)"
       id="g24">
      <g
         transform="translate(10.98401,20.492005)"
         id="g23">
        <g
           id="g6"
           transform="translate(-15.744157,-12.792128)">
          <path
             d="m 0,216.94071 2.8423407,-0.32088 c 2.8423408,-0.32089 8.5270223,-0.96265 14.2117033,-1.15272 5.684682,-0.19007 11.369363,0.0716 17.054045,0.29628 5.684681,0.22472 11.369363,0.41253 17.061831,1.72107 5.692469,1.30854 11.392725,3.7378 17.085194,4.22447 5.692468,0.48667 11.37715,-0.96926 17.061831,-3.20137 5.684682,-2.2321 11.369363,-5.24038 17.054045,-7.06391 5.68468,-1.82353 11.36936,-2.46231 17.06183,-3.2083 5.69247,-0.74599 11.39273,-1.59919 17.08519,-3.88138 5.69247,-2.2822 11.37715,-5.99339 17.06184,-10.03946 5.68468,-4.04608 11.36936,-8.42704 17.05404,-24.53442 5.68468,-16.10739 11.36936,-43.9412 17.06183,-57.48222 5.69247,-13.541011 11.39273,-12.789224 17.0852,-12.988071 5.69246,-0.198847 11.37715,-1.348328 17.06183,-4.043973 5.68468,-2.695645 11.36936,-6.937455 17.05404,-10.469002 5.68468,-3.531547 11.36936,-6.352832 17.06151,-7.825668 5.69214,-1.472836 11.39175,-1.597224 17.08389,-3.13956 5.69215,-1.542337 11.37683,-4.502623 17.06151,14.760906 5.68468,19.263528 11.36936,60.750868 17.05405,83.272038 5.68468,22.52116 11.36936,26.07614 17.06183,30.72233 5.69247,4.64619 11.39272,10.38358 17.08552,17.19161 5.69279,6.80802 11.37812,14.68667 17.06313,21.85978 5.685,7.17312 11.36968,13.6407 17.05436,18.6077 5.68469,4.967 11.36937,8.43343 17.06184,10.68082 5.69246,2.24739 11.39272,3.27576 17.08519,6.30264 5.69247,3.02689 11.37715,8.05231 17.06183,13.89239 5.68468,5.84009 11.36936,12.49485 17.05404,16.77184 5.68469,4.27698 11.36937,6.17619 17.06184,6.20212 5.69247,0.0259 11.39272,-1.82142 17.08519,-3.14577 5.69247,-1.32435 11.37715,-2.1257 17.06183,-4.30037 5.68468,-2.17466 11.36936,-5.72264 17.05405,-6.4452 5.68468,-0.72255 11.36936,1.38031 17.06183,1.88435 5.69247,0.50404 11.39272,-0.59074 17.08519,-2.57621 5.69247,-1.98547 11.37715,-4.86162 17.06183,-8.51877 5.68468,-3.65716 11.36937,-8.09532 17.05372,-13.69984 5.68436,-5.60453 11.36839,-12.37541 17.06054,-17.12052 5.69214,-4.74511 11.3924,-7.46444 17.08519,-10.21 5.69279,-2.74555 11.37812,-5.51734 17.06313,-7.04473 5.68501,-1.52738 11.36969,-1.81037 17.05437,-2.32423 5.68468,-0.51385 11.36936,-1.25859 17.06183,-1.74537 5.69247,-0.48677 11.39272,-0.7156 17.08519,-1.44358 5.69247,-0.72798 11.37715,-1.95512 17.06183,-2.55767 5.68469,-0.60255 11.36937,-0.58051 17.05405,0.47332 5.68468,1.05383 11.36936,3.13945 17.06183,5.5596 5.69247,2.42014 11.39273,5.17482 17.08519,7.61446 5.69247,2.43965 11.37715,4.56427 17.06184,6.98537 5.68468,2.42109 11.36936,5.13867 14.2117,6.49746 L 785,263.33686 v 0 l -2.84234,-1.35879 c -2.84234,-1.35879 -8.52702,-4.07637 -14.2117,-6.49746 -5.68469,-2.4211 -11.36937,-4.54572 -17.06184,-6.98537 -5.69246,-2.43964 -11.39272,-5.19432 -17.08519,-7.61446 -5.69247,-2.42015 -11.37715,-4.50577 -17.06183,-5.5596 -5.68468,-1.05383 -11.36936,-1.07587 -17.05405,-0.47332 -5.68468,0.60255 -11.36936,1.82969 -17.06183,2.55767 -5.69247,0.72798 -11.39272,0.95681 -17.08519,1.44358 -5.69247,0.48678 -11.37715,1.23152 -17.06183,1.74537 -5.68468,0.51386 -11.36936,0.79685 -17.05437,2.32423 -5.68501,1.52739 -11.37034,4.29918 -17.06313,7.04741 -5.69279,2.74823 -11.39305,5.4729 -17.08519,10.22726 -5.69215,4.75435 -11.37618,11.53839 -17.06054,17.15198 -5.68435,5.61358 -11.36904,10.0567 -17.05372,13.74748 -5.68468,3.69078 -11.36936,6.62921 -17.06183,8.68313 -5.69247,2.05393 -11.39272,3.22335 -17.08519,3.05193 -5.69247,-0.17141 -11.37715,-1.68366 -17.06183,-0.29592 -5.68469,1.38774 -11.36937,5.67546 -17.05405,8.78611 -5.68468,3.11066 -11.36936,5.04425 -17.06183,7.96378 -5.69247,2.91954 -11.39272,6.82501 -17.08519,9.74445 -5.69247,2.91944 -11.37715,4.85285 -17.06184,4.17306 -5.68468,-0.67978 -11.36936,-3.97276 -17.05404,-7.47439 -5.68468,-3.50163 -11.36936,-7.21192 -17.06183,-7.64407 -5.69247,-0.43215 -11.39273,2.41385 -17.08519,4.2231 -5.69247,1.80924 -11.37715,2.58175 -17.06184,3.10414 -5.68468,0.5224 -11.36936,0.79469 -17.05436,-2.81311 -5.68501,-3.6078 -11.37034,-11.09569 -17.06313,-16.36797 -5.6928,-5.27228 -11.39305,-8.32896 -17.08552,-11.94122 -5.69247,-3.61226 -11.37715,-7.78011 -17.06183,-27.61718 -5.68469,-19.83707 -11.36937,-55.34336 -17.05405,-71.60954 -5.68468,-16.26617 -11.36936,-13.29224 -17.06151,-11.39328 -5.69214,1.89896 -11.39175,2.72294 -17.08389,2.6797 -5.69215,-0.0432 -11.37683,-0.95367 -17.06151,-1.4444 -5.68468,-0.49074 -11.36936,-0.56176 -17.05404,-0.27432 -5.68468,0.28744 -11.36937,0.93335 -17.06183,1.22073 -5.69247,0.28738 -11.39273,0.21624 -17.0852,11.05369 -5.69247,10.83745 -11.37715,32.5835 -17.06183,43.43459 -5.68468,10.8511 -11.36936,10.80725 -17.05404,12.90623 -5.68469,2.09898 -11.36937,6.3408 -17.06184,8.7708 -5.69246,2.42999 -11.39272,3.04817 -17.08519,5.25623 -5.69247,2.20806 -11.37715,6.00601 -17.06183,11.97578 -5.684682,5.96977 -11.369363,14.11137 -17.054045,16.39383 -5.684681,2.28246 -11.369363,-1.29422 -17.061831,-6.1713 -5.692469,-4.87709 -11.392725,-11.05459 -17.085194,-15.32823 -5.692468,-4.27365 -11.37715,-6.64345 -17.061831,-7.75717 -5.684682,-1.11371 -11.369363,-0.97134 -17.054045,-0.64442 -5.684681,0.32693 -11.3693625,0.83841 -14.2117033,1.09414 L 0,267.08748 Z"
             id="path1"
             fill="#9467bd">
            <title
               id="title1">Tape</title>
          </path>
          <path
             d="m 0,267.08748 2.8423407,-0.25574 c 2.8423408,-0.25573 8.5270223,-0.76721 14.2117033,-1.09414 5.684682,-0.32692 11.369363,-0.46929 17.054045,0.64442 5.684681,1.11372 11.369363,3.48352 17.061831,7.75717 5.692469,4.27364 11.392725,10.45114 17.085194,15.32823 5.692468,4.87708 11.37715,8.45376 17.061831,6.1713 5.684682,-2.28246 11.369363,-10.42406 17.054045,-16.39383 5.68468,-5.96977 11.36936,-9.76772 17.06183,-11.97578 5.69247,-2.20806 11.39273,-2.82624 17.08519,-5.08957 5.69247,-2.26332 11.37715,-6.17181 17.06184,-8.10412 5.68468,-1.93232 11.36936,-1.88847 17.05404,-1.20797 5.68468,0.68049 11.36936,1.99763 17.06183,0.60213 5.69247,-1.39549 11.39273,-5.50363 17.0852,-10.09329 5.69246,-4.58967 11.37715,-9.66087 17.06183,-19.39026 5.68468,-9.7294 11.36936,-24.11699 17.05404,-30.85557 5.68468,-6.73857 11.36936,-5.82813 17.06151,-5.7849 5.69214,0.0432 11.39175,-0.78074 17.08389,-2.6797 5.69215,-1.89896 11.37683,-4.87289 17.06151,-24.71138 5.68468,-19.83849 11.36936,-56.54153 17.05405,-77.065974 5.68468,-20.524442 11.36936,-24.870287 17.06183,-28.707321 5.69247,-3.837034 11.39272,-7.165259 17.08552,-12.633501 5.69279,-5.468243 11.37812,-13.076503 17.06313,-16.692522 5.685,-3.616019 11.36968,-3.239796 17.05436,-2.745581 5.68469,0.494216 11.36937,1.106426 17.06184,2.576492 5.69246,1.470066 11.39272,3.797987 17.08519,2.44499 5.69247,-1.352997 11.37715,-6.386913 17.06183,-9.998539 5.68468,-3.611626 11.36936,-5.800961 17.05404,-5.501463 5.68469,0.299498 11.36937,3.08783 17.06184,6.25955 5.69247,3.17172 11.39272,6.726828 17.08519,10.898468 5.69247,4.171641 11.37715,8.959814 17.06183,12.842331 5.68468,3.882517 11.36936,6.859378 17.05405,8.051732 5.68468,1.192354 11.36936,0.600201 17.06183,1.078846 5.69247,0.478644 11.39272,2.028087 17.08519,4.272025 5.69247,2.243938 11.37715,5.182372 17.06183,8.873149 5.68468,3.690778 11.36937,8.1339 17.05372,13.747482 5.68436,5.613581 11.36839,12.397622 17.06054,17.318645 5.69214,4.921024 11.3924,7.979031 17.08519,10.893931 5.69279,2.91489 11.37812,5.68668 17.06313,7.21407 5.68501,1.52738 11.36969,1.81037 17.05437,10.88745 5.68468,9.07708 11.36936,26.94827 17.06183,35.61387 5.69247,8.66561 11.39272,8.12563 17.08519,12.45046 5.69247,4.32484 11.37715,13.5145 17.06183,18.78913 5.68469,5.27463 11.36937,6.63425 17.05405,9.22198 5.68468,2.58773 11.36936,6.40359 17.06183,9.8922 5.69247,3.48861 11.39273,6.64998 17.08519,10.13239 5.69247,3.4824 11.37715,7.28583 17.06184,10.65202 5.68468,3.36619 11.36936,6.29515 14.2117,7.75963 L 785,239.9449 v 9.22687 l -2.84234,-1.22211 c -2.84234,-1.2221 -8.52702,-3.66631 -14.2117,-5.8073 -5.68469,-2.141 -11.36937,-3.97878 -17.06184,-6.22621 -5.69246,-2.24743 -11.39272,-4.9045 -17.08519,-7.2535 -5.69247,-2.349 -11.37715,-4.38992 -17.06183,-5.18545 -5.68468,-0.79553 -11.36936,-0.34567 -17.05405,-3.6397 -5.68468,-3.29403 -11.36936,-10.33194 -17.06183,-12.53198 -5.69247,-2.20005 -11.39272,0.43778 -17.08519,-5.28651 -5.69247,-5.72428 -11.37715,-19.81068 -17.06183,-25.87179 -5.68468,-6.06111 -11.36936,-4.09693 -17.05437,-1.56603 -5.68501,2.5309 -11.37034,5.62851 -17.06313,9.02702 -5.69279,3.39852 -11.39305,7.09793 -17.08519,12.31955 -5.69215,5.22161 -11.37618,11.96543 -17.06054,19.84658 -5.68435,7.88114 -11.36904,16.89961 -17.05372,24.68037 -5.68468,7.78076 -11.36936,14.3238 -17.06183,21.1597 -5.69247,6.83591 -11.39272,13.96468 -17.08519,18.22404 -5.69247,4.25937 -11.37715,5.64932 -17.06183,8.48035 -5.68469,2.83103 -11.36937,7.10314 -17.05405,10.86135 -5.68468,3.75821 -11.36936,7.00253 -17.06183,9.54837 -5.69247,2.54583 -11.39272,4.39318 -17.08519,4.36725 -5.69247,-0.0259 -11.37715,-1.92514 -17.06184,-6.20212 -5.68468,-4.27699 -11.36936,-10.93175 -17.05404,-16.77184 -5.68468,-5.84008 -11.36936,-10.8655 -17.06183,-13.89239 -5.69247,-3.02688 -11.39273,-4.05525 -17.08519,-6.30264 -5.69247,-2.24739 -11.37715,-5.71382 -17.06184,-10.68082 -5.68468,-4.967 -11.36936,-11.43458 -17.05436,-18.6077 -5.68501,-7.17311 -11.37034,-15.05176 -17.06313,-21.85978 -5.6928,-6.80803 -11.39305,-12.54542 -17.08552,-17.19161 -5.69247,-4.64619 -11.37715,-8.20117 -17.06183,4.7609 -5.68469,12.96208 -11.36937,42.44121 -17.05405,55.09754 -5.68468,12.65633 -11.36936,8.48986 -17.06151,4.82474 -5.69214,-3.66512 -11.39175,-6.82889 -17.08389,-11.2441 -5.69215,-4.41521 -11.37683,-10.08186 -17.06151,-9.26342 -5.68468,0.81843 -11.36936,8.12196 -17.05404,11.19898 -5.68468,3.07702 -11.36937,1.92754 -17.06183,1.72869 -5.69247,-0.19885 -11.39273,0.55294 -17.0852,-0.25481 -5.69247,-0.80776 -11.37715,-3.17505 -17.06183,-4.491 -5.68468,-1.31594 -11.36936,-1.58054 -17.05404,0.2414 -5.68469,1.82194 -11.36937,5.73043 -17.06184,7.99375 -5.69246,2.26333 -11.39272,2.88151 -17.08519,5.08957 -5.69247,2.20806 -11.37715,6.00601 -17.06183,11.97578 -5.684682,5.96977 -11.369363,14.11137 -17.054045,16.39383 -5.684681,2.28246 -11.369363,-1.29422 -17.061831,-6.1713 -5.692469,-4.87709 -11.392725,-11.05459 -17.085194,-15.32823 -5.692468,-4.27365 -11.37715,-6.64345 -17.061831,-7.75717 -5.684682,-1.11371 -11.369363,-0.97134 -17.054045,-0.64442 -5.684681,0.32693 -11.3693625,0.83841 -14.2117033,1.09414 z"
             id="path2"
             fill="#1f77b4">
            <title
               id="title2">Disc</title>
          </path>
          <path
             d="m 0,267.08748 2.8423407,-0.25574 c 2.8423408,-0.25573 8.5270223,-0.76721 14.2117033,-1.09414 5.684682,-0.32692 11.369363,-0.46929 17.054045,0.64442 5.684681,1.11372 11.369363,3.48352 17.061831,7.75717 5.692469,4.27364 11.392725,10.45114 17.085194,15.32823 5.692468,4.87708 11.37715,8.45376 17.061831,6.1713 5.684682,-2.28246 11.369363,-10.42406 17.054045,-16.39383 5.68468,-5.96977 11.36936,-9.76772 17.06183,-11.97578 5.69247,-2.20806 11.39273,-2.82624 17.08519,-5.25623 5.69247,-2.43 11.37715,-6.67182 17.06184,-8.49376 5.68468,-1.82194 11.36936,-1.22401 17.05404,0.25861 5.68468,1.48261 11.36936,3.8499 17.06183,4.65766 5.69247,0.80775 11.39273,0.056 17.0852,0.25481 5.69246,0.19885 11.37715,1.34833 17.06183,4.04397 5.68468,2.69565 11.36936,6.93746 17.05404,10.30234 5.68468,3.36488 11.36936,5.85283 17.06151,7.159 5.69214,1.30617 11.39175,1.43056 17.08389,2.97289 5.69215,1.54234 11.37683,4.50263 17.06151,5.9259 5.68468,1.42327 11.36936,1.30953 17.05405,3.42558 5.68468,2.11606 11.36936,6.4619 17.06183,10.29893 5.69247,3.83704 11.39272,7.16526 17.08552,12.63351 5.69279,5.46824 11.37812,13.0765 17.06313,16.69252 5.685,3.61602 11.36968,3.23979 17.05436,2.74558 5.68469,-0.49422 11.36937,-1.10643 17.06184,-2.57649 5.69246,-1.47007 11.39272,-3.79799 17.08519,-2.44499 5.69247,1.35299 11.37715,6.38691 17.06183,9.99854 5.68468,3.61162 11.36936,5.80096 17.05404,5.50146 5.68469,-0.2995 11.36937,-3.08783 17.06184,-6.25955 5.69247,-3.17172 11.39272,-6.72683 17.08519,-10.89847 5.69247,-4.17164 11.37715,-8.95981 17.06183,-13.17566 5.68468,-4.21585 11.36936,-7.85938 17.05405,-10.74211 5.68468,-2.88273 11.36936,-5.00465 17.06183,-11.87312 5.69247,-6.86847 11.39272,-18.48348 17.08519,-27.5625 5.69247,-9.07902 11.37715,-15.62206 17.06183,-23.40282 5.68468,-7.78076 11.36937,-16.79923 17.05372,-24.68037 5.68436,-7.88115 11.36839,-14.62497 17.06054,-19.84658 5.69214,-5.22162 11.3924,-8.92103 17.08519,-12.31955 5.69279,-3.39851 11.37812,-6.49612 17.06313,-9.02702 5.68501,-2.5309 11.36969,-4.49508 17.05437,-14.09602 5.68468,-9.60094 11.36936,-26.83863 17.06183,-35.34307 5.69247,-8.50444 11.39272,-8.27561 17.08519,-7.54763 5.69247,0.72798 11.37715,1.95512 17.06183,9.01094 5.68469,7.05582 11.36937,19.94032 17.05405,29.60418 5.68468,9.66386 11.36936,16.10707 17.06183,22.17043 5.69247,6.06337 11.39273,11.74689 17.08519,17.50685 5.69247,5.75997 11.37715,11.59637 17.06184,16.48344 5.68468,4.88706 11.36936,8.82477 14.2117,10.79363 L 785,226.13279 v 12.81211 l -2.84234,-1.46448 c -2.84234,-1.46448 -8.52702,-4.39344 -14.2117,-7.75963 -5.68469,-3.36619 -11.36937,-7.16962 -17.06184,-10.65202 -5.69246,-3.48241 -11.39272,-6.64378 -17.08519,-10.13239 -5.69247,-3.48861 -11.37715,-7.30447 -17.06183,-14.99267 -5.68468,-7.68821 -11.36936,-19.24877 -17.05405,-24.52341 -5.68468,-5.27463 -11.36936,-4.26334 -17.06183,-3.4877 -5.69247,0.77564 -11.39272,1.31562 -17.08519,10.05308 -5.69247,8.73746 -11.37715,25.67241 -17.06183,34.7714 -5.68468,9.09898 -11.36936,10.36201 -17.05437,12.57232 -5.68501,2.21031 -11.37034,5.3679 -17.06313,8.84509 -5.69279,3.4772 -11.39305,7.274 -17.08519,11.94721 -5.69215,4.67321 -11.37618,10.22283 -17.06054,15.36177 -5.68435,5.13893 -11.36904,9.86718 -17.05372,13.29662 -5.68468,3.42945 -11.36936,5.5601 -17.06183,10.02892 -5.69247,4.46881 -11.39272,11.2758 -17.08519,15.11939 -5.69247,3.84358 -11.37715,4.72377 -17.06183,6.98562 -5.68469,2.26186 -11.36937,5.90539 -17.05405,10.12124 -5.68468,4.21585 -11.36936,9.00402 -17.06183,13.17566 -5.69247,4.17164 -11.39272,7.72675 -17.08519,10.89847 -5.69247,3.17172 -11.37715,5.96005 -17.06184,6.25955 -5.68468,0.2995 -11.36936,-1.88984 -17.05404,-5.50146 -5.68468,-3.61163 -11.36936,-8.64555 -17.06183,-9.99854 -5.69247,-1.353 -11.39273,0.97492 -17.08519,2.44499 -5.69247,1.47006 -11.37715,2.08227 -17.06184,2.57649 -5.68468,0.49421 -11.36936,0.87044 -17.05436,-2.74558 -5.68501,-3.61602 -11.37034,-11.22428 -17.06313,-16.69252 -5.6928,-5.46825 -11.39305,-8.79647 -17.08552,-12.63351 -5.69247,-3.83703 -11.37715,-8.18287 -17.06183,-10.29893 -5.68469,-2.11605 -11.36937,-2.00231 -17.05405,-3.42558 -5.68468,-1.42327 -11.36936,-4.38356 -17.06151,-5.9259 -5.69214,-1.54233 -11.39175,-1.66672 -17.08389,-2.97289 -5.69215,-1.30617 -11.37683,-3.79412 -17.06151,-7.159 -5.68468,-3.36488 -11.36936,-7.60669 -17.05404,-10.30234 -5.68468,-2.69564 -11.36937,-3.84512 -17.06183,-4.04397 -5.69247,-0.19885 -11.39273,0.55294 -17.0852,-0.25481 -5.69247,-0.80776 -11.37715,-3.17505 -17.06183,-4.65766 -5.68468,-1.48262 -11.36936,-2.08055 -17.05404,-0.25861 -5.68469,1.82194 -11.36937,6.06376 -17.06184,8.49376 -5.69246,2.42999 -11.39272,3.04817 -17.08519,5.25623 -5.69247,2.20806 -11.37715,6.00601 -17.06183,11.97578 -5.684682,5.96977 -11.369363,14.11137 -17.054045,16.39383 -5.684681,2.28246 -11.369363,-1.29422 -17.061831,-6.1713 -5.692469,-4.87709 -11.392725,-11.05459 -17.085194,-15.32823 -5.692468,-4.27365 -11.37715,-6.64345 -17.061831,-7.75717 -5.684682,-1.11371 -11.369363,-0.97134 -17.054045,-0.64442 -5.684681,0.32693 -11.3693625,0.83841 -14.2117033,1.09414 z"
             id="path3"
             fill="#ff7f0e"
             style="fill:#e900c3;fill-opacity:1">
            <title
               id="title3">Download</title>
          </path>
          <path
             d="m 0,267.08748 2.8423407,-0.25574 c 2.8423408,-0.25573 8.5270223,-0.76721 14.2117033,-1.09414 5.684682,-0.32692 11.369363,-0.46929 17.054045,0.64442 5.684681,1.11372 11.369363,3.48352 17.061831,7.75717 5.692469,4.27364 11.392725,10.45114 17.085194,15.32823 5.692468,4.87708 11.37715,8.45376 17.061831,6.1713 5.684682,-2.28246 11.369363,-10.42406 17.054045,-16.39383 5.68468,-5.96977 11.36936,-9.76772 17.06183,-11.97578 5.69247,-2.20806 11.39273,-2.82624 17.08519,-5.25623 5.69247,-2.43 11.37715,-6.67182 17.06184,-8.49376 5.68468,-1.82194 11.36936,-1.22401 17.05404,0.25861 5.68468,1.48261 11.36936,3.8499 17.06183,4.65766 5.69247,0.80775 11.39273,0.056 17.0852,0.25481 5.69246,0.19885 11.37715,1.34833 17.06183,4.04397 5.68468,2.69565 11.36936,6.93746 17.05404,10.30234 5.68468,3.36488 11.36936,5.85283 17.06151,6.56419 5.69214,0.71135 11.39175,-0.35389 17.08389,0.34587 5.69215,0.69977 11.37683,3.16454 17.06151,4.02393 5.68468,0.85938 11.36936,0.11339 17.05405,1.82432 5.68468,1.71093 11.36936,5.87878 17.06183,9.49104 5.69247,3.61226 11.39272,6.66894 17.08552,11.94122 5.69279,5.27228 11.37812,12.76017 17.06313,16.36797 5.685,3.6078 11.36968,3.33551 17.05436,2.81311 5.68469,-0.52239 11.36937,-1.2949 17.06184,-3.10414 5.69246,-1.80925 11.39272,-4.65525 17.08519,-4.2231 5.69247,0.43215 11.37715,4.14244 17.06183,7.64407 5.68468,3.50163 11.36936,6.79461 17.05404,7.47439 5.68469,0.67979 11.36937,-1.25362 17.06184,-4.17306 5.69247,-2.91944 11.39272,-6.82491 17.08519,-11.87797 5.69247,-5.05305 11.37715,-11.25368 17.06183,-16.49005 5.68468,-5.23636 11.36936,-9.50847 17.05405,-12.3395 5.68468,-2.83103 11.36936,-4.22098 17.06183,-5.2888 5.69247,-1.06781 11.39272,-1.81349 17.08519,-3.25165 5.69247,-1.43816 11.37715,-3.56881 17.06183,-6.99826 5.68468,-3.42944 11.36937,-8.15769 17.05372,-12.17586 5.68436,-4.01816 11.36839,-7.32626 17.06054,-11.99947 5.69214,-4.67321 11.3924,-10.71154 17.08519,-13.78984 5.69279,-3.0783 11.37812,-3.19657 17.06313,-3.38307 5.68501,-0.18651 11.36969,-0.44124 17.05437,-0.91924 5.68468,-0.47801 11.36936,-1.17929 17.06183,-1.73315 5.69247,-0.55386 11.39272,-0.9603 17.08519,-1.80208 5.69247,-0.84177 11.37715,-2.11888 17.06183,-1.90119 5.68469,0.21769 11.36937,1.93018 17.05405,3.8519 5.68468,1.92171 11.36936,4.05264 17.06183,6.51601 5.69247,2.46337 11.39273,5.25917 17.08519,7.6276 5.69247,2.36843 11.37715,4.30948 17.06184,6.68256 5.68468,2.37308 11.36936,5.17818 14.2117,6.58073 L 785,258.73754 v 4.59932 l -2.84234,-1.35879 c -2.84234,-1.35879 -8.52702,-4.07637 -14.2117,-6.49746 -5.68469,-2.4211 -11.36937,-4.54572 -17.06184,-6.98537 -5.69246,-2.43964 -11.39272,-5.19432 -17.08519,-7.61446 -5.69247,-2.42015 -11.37715,-4.50577 -17.06183,-6.39945 -5.68468,-1.89369 -11.36936,-3.59543 -17.05405,-3.74591 -5.68468,-0.15048 -11.36936,1.25032 -17.06183,2.19087 -5.69247,0.94054 -11.39272,1.42083 -17.08519,2.14164 -5.69247,0.7208 -11.37715,1.68211 -17.06183,2.38928 -5.68468,0.70717 -11.36936,1.16018 -17.05437,1.59815 -5.68501,0.43797 -11.37034,0.86089 -17.06313,3.53017 -5.69279,2.66928 -11.39305,7.58493 -17.08519,12.52244 -5.69215,4.93751 -11.37618,9.8969 -17.06054,14.6728 -5.68435,4.77591 -11.36904,9.36835 -17.05372,13.29681 -5.68468,3.92846 -11.36936,7.19295 -17.06183,9.26379 -5.69247,2.07083 -11.39272,2.94802 -17.08519,3.42202 -5.69247,0.474 -11.37715,0.54481 -17.06183,2.35421 -5.68469,1.80939 -11.36937,5.35737 -17.05405,10.38657 -5.68468,5.0292 -11.36936,11.53962 -17.06183,16.58417 -5.69247,5.04454 -11.39272,8.62321 -17.08519,11.7781 -5.69247,3.15489 -11.37715,5.88601 -17.06184,6.15185 -5.68468,0.26584 -11.36936,-1.93362 -17.05404,-5.59058 -5.68468,-3.65697 -11.36936,-8.77145 -17.06183,-10.23376 -5.69247,-1.46231 -11.39273,0.72756 -17.08519,2.17088 -5.69247,1.44332 -11.37715,2.1401 -17.06184,2.69739 -5.68468,0.55729 -11.36936,0.9751 -17.05436,-2.61315 -5.68501,-3.58825 -11.37034,-11.18256 -17.06313,-16.73447 -5.6928,-5.5519 -11.39305,-9.0614 -17.08552,-13.06291 -5.69247,-4.00151 -11.37715,-8.49504 -17.06183,-10.08043 -5.68469,-1.5854 -11.36937,-0.26267 -17.05405,-1.08145 -5.68468,-0.81878 -11.36936,-3.77907 -17.06151,-5.32141 -5.69214,-1.54233 -11.39175,-1.66672 -17.08389,-2.97289 -5.69215,-1.30617 -11.37683,-3.79412 -17.06151,-7.159 -5.68468,-3.36488 -11.36936,-7.60669 -17.05404,-10.30234 -5.68468,-2.69564 -11.36937,-3.84512 -17.06183,-4.04397 -5.69247,-0.19885 -11.39273,0.55294 -17.0852,-0.25481 -5.69247,-0.80776 -11.37715,-3.17505 -17.06183,-4.65766 -5.68468,-1.48262 -11.36936,-2.08055 -17.05404,-0.25861 -5.68469,1.82194 -11.36937,6.06376 -17.06184,8.49376 -5.69246,2.42999 -11.39272,3.04817 -17.08519,5.25623 -5.69247,2.20806 -11.37715,6.00601 -17.06183,11.97578 -5.684682,5.96977 -11.369363,14.11137 -17.054045,16.39383 -5.684681,2.28246 -11.369363,-1.29422 -17.061831,-6.1713 -5.692469,-4.87709 -11.392725,-11.05459 -17.085194,-15.32823 -5.692468,-4.27365 -11.37715,-6.64345 -17.061831,-7.75717 -5.684682,-1.11371 -11.369363,-0.97134 -17.054045,-0.64442 -5.684681,0.32693 -11.3693625,0.83841 -14.2117033,1.09414 z"
             id="path4"
             fill="#2ca02c">
            <title
               id="title4">Other</title>
          </path>
          <path
             d="m 0,267.08748 2.8423407,-0.25574 c 2.8423408,-0.25573 8.5270223,-0.76721 14.2117033,-1.09414 5.684682,-0.32692 11.369363,-0.46929 17.054045,0.64442 5.684681,1.11372 11.369363,3.48352 17.061831,7.75717 5.692469,4.27364 11.392725,10.45114 17.085194,15.32823 5.692468,4.87708 11.37715,8.45376 17.061831,6.1713 5.684682,-2.28246 11.369363,-10.42406 17.054045,-16.39383 5.68468,-5.96977 11.36936,-9.76772 17.06183,-11.97578 5.69247,-2.20806 11.39273,-2.82624 17.08519,-5.25623 5.69247,-2.43 11.37715,-6.67182 17.06184,-8.49376 5.68468,-1.82194 11.36936,-1.22401 17.05404,0.25861 5.68468,1.48261 11.36936,3.8499 17.06183,4.65766 5.69247,0.80775 11.39273,0.056 17.0852,0.25481 5.69246,0.19885 11.37715,1.34833 17.06183,4.04397 5.68468,2.69565 11.36936,6.93746 17.05404,10.13567 5.68468,3.19822 11.36936,5.35283 17.06151,6.659 5.69214,1.30617 11.39175,1.76389 17.08389,3.4729 5.69215,1.709 11.37683,4.66929 17.06151,6.09256 5.68468,1.42327 11.36936,1.30953 17.05405,3.42558 5.68468,2.11606 11.36936,6.4619 17.06183,10.29893 5.69247,3.83704 11.39272,7.16526 17.08552,12.63351 5.69279,5.46824 11.37812,13.0765 17.06313,16.69252 5.685,3.61602 11.36968,3.23979 17.05436,2.74558 5.68469,-0.49422 11.36937,-1.10643 17.06184,-2.57649 5.69246,-1.47007 11.39272,-3.79799 17.08519,-2.44499 5.69247,1.35299 11.37715,6.38691 17.06183,9.99854 5.68468,3.61162 11.36936,5.80096 17.05404,5.50146 5.68469,-0.2995 11.36937,-3.08783 17.06184,-6.25955 5.69247,-3.17172 11.39272,-6.72683 17.08519,-10.89847 5.69247,-4.17164 11.37715,-8.95981 17.06183,-13.34233 5.68468,-4.38252 11.36936,-8.35938 17.05405,-9.90841 5.68468,-1.54903 11.36936,-0.67024 17.06183,-2.00313 5.69247,-1.33289 11.39272,-4.87746 17.08519,-8.28199 5.69247,-3.40453 11.37715,-6.66902 17.06183,-10.59748 5.68468,-3.92846 11.36937,-8.5209 17.05372,-15.27028 5.68436,-6.74937 11.36839,-15.65569 17.06054,-20.59321 5.69214,-4.93751 11.3924,-5.90622 17.08519,-9.38341 5.69279,-3.4772 11.37812,-9.46288 17.06313,-13.08723 5.68501,-3.62436 11.36969,-4.88739 17.05437,-6.88755 5.68468,-2.00017 11.36936,-4.73747 17.06183,-7.42503 5.69247,-2.68757 11.39272,-5.3254 17.08519,-13.19985 5.69247,-7.87446 11.37715,-20.98556 17.06183,-34.61173 5.68469,-13.62617 11.36937,-27.76743 17.05405,-35.88086 5.68468,-8.11344 11.36936,-10.19906 17.06183,-12.61921 5.69247,-2.42014 11.39273,-5.17482 17.08519,-7.61446 5.69247,-2.43965 11.37715,-4.56427 17.06184,-6.98537 5.68468,-2.421094 11.36936,-5.138672 14.2117,-6.497462 L 785,92.663139 V 225.13279 l -2.84234,-1.96885 c -2.84234,-1.96886 -8.52702,-5.90657 -14.2117,-10.79363 -5.68469,-4.88707 -11.36937,-10.72347 -17.06184,-16.48344 -5.69246,-5.75996 -11.39272,-11.44348 -17.08519,-17.50685 -5.69247,-6.06336 -11.37715,-12.50657 -17.06183,-10.01035 -5.68468,2.49623 -11.36936,13.93189 -17.05405,25.2623 -5.68468,11.33042 -11.36936,22.55558 -17.06183,28.37139 -5.69247,5.8158 -11.39272,6.22224 -17.08519,6.7761 -5.69247,0.55386 -11.37715,1.25514 -17.06183,1.73315 -5.68468,0.478 -11.36936,0.73273 -17.05437,3.57751 -5.68501,2.84478 -11.37034,8.27961 -17.06313,11.35791 -5.69279,3.0783 -11.39305,3.80008 -17.08519,8.4931 -5.69215,4.69302 -11.37618,13.35729 -17.06054,19.91028 -5.68435,6.553 -11.36904,10.99471 -17.05372,14.64513 -5.68468,3.65043 -11.36936,6.50956 -17.06183,9.17972 -5.69247,2.67017 -11.39272,5.15136 -17.08519,5.92921 -5.69247,0.77785 -11.37715,-0.14763 -17.06183,1.37805 -5.68469,1.52569 -11.36937,5.50255 -17.05405,9.88507 -5.68468,4.38252 -11.36936,9.17069 -17.06183,13.34233 -5.69247,4.17164 -11.39272,7.72675 -17.08519,10.89847 -5.69247,3.17172 -11.37715,5.96005 -17.06184,6.25955 -5.68468,0.2995 -11.36936,-1.88984 -17.05404,-5.50146 -5.68468,-3.61163 -11.36936,-8.64555 -17.06183,-9.99854 -5.69247,-1.353 -11.39273,0.97492 -17.08519,2.44499 -5.69247,1.47006 -11.37715,2.08227 -17.06184,2.57649 -5.68468,0.49421 -11.36936,0.87044 -17.05436,-2.74558 -5.68501,-3.61602 -11.37034,-11.22428 -17.06313,-16.69252 -5.6928,-5.46825 -11.39305,-8.79647 -17.08552,-12.63351 -5.69247,-3.83703 -11.37715,-8.18287 -17.06183,-10.29893 -5.68469,-2.11605 -11.36937,-2.00231 -17.05405,-3.42558 -5.68468,-1.42327 -11.36936,-4.38356 -17.06151,-6.09256 -5.69214,-1.70901 -11.39175,-2.16673 -17.08389,-3.4729 -5.69215,-1.30617 -11.37683,-3.46078 -17.06151,-6.659 -5.68468,-3.19821 -11.36936,-7.44002 -17.05404,-10.13567 -5.68468,-2.69564 -11.36937,-3.84512 -17.06183,-4.04397 -5.69247,-0.19885 -11.39273,0.55294 -17.0852,-0.25481 -5.69247,-0.80776 -11.37715,-3.17505 -17.06183,-4.65766 -5.68468,-1.48262 -11.36936,-2.08055 -17.05404,-0.25861 -5.68469,1.82194 -11.36937,6.06376 -17.06184,8.49376 -5.69246,2.42999 -11.39272,3.04817 -17.08519,5.25623 -5.69247,2.20806 -11.37715,6.00601 -17.06183,11.97578 -5.684682,5.96977 -11.369363,14.11137 -17.054045,16.39383 -5.684681,2.28246 -11.369363,-1.29422 -17.061831,-6.1713 -5.692469,-4.87709 -11.392725,-11.05459 -17.085194,-15.32823 -5.692468,-4.27365 -11.37715,-6.64345 -17.061831,-7.75717 -5.684682,-1.11371 -11.369363,-0.97134 -17.054045,-0.64442 -5.684681,0.32693 -11.3693625,0.83841 -14.2117033,1.09414 z"
             id="path5"
             fill="#d62728">
            <title
               id="title5">Streaming</title>
          </path>
          <path
             d="m 0,91.912516 2.8423407,0.255739 c 2.8423408,0.25574 8.5270223,0.767218 14.2117033,1.094142 5.684682,0.326924 11.369363,0.469293 17.054045,-0.644422 C 39.79277,91.50426 45.477452,89.13446 51.16992,84.860813 56.862389,80.587165 62.562645,74.40967 68.255114,69.532585 c 5.692468,-4.877086 11.37715,-8.453762 17.061831,-6.171302 5.684682,2.282459 11.369363,10.424054 17.054045,16.393825 5.68468,5.969772 11.36936,9.76772 17.06183,11.975781 5.69247,2.208062 11.39273,2.826237 17.08519,4.9229 5.69247,2.096662 11.37715,5.671811 17.06184,7.327091 5.68468,1.65527 11.36936,1.39067 17.05404,14.90599 5.68468,13.51532 11.36936,40.81056 17.06183,54.49375 5.69247,13.68319 11.39273,13.75433 17.0852,13.46695 5.69246,-0.28738 11.37715,-0.93329 17.06183,7.91194 5.68468,8.84522 11.36936,27.18158 17.05404,39.18308 5.68468,12.0015 11.36936,17.66815 17.06151,22.08336 5.69214,4.41521 11.39175,7.57898 17.08389,11.2441 5.69215,3.66512 11.37683,7.83159 17.06151,11.31399 5.68468,3.48241 11.36936,6.28075 17.05405,9.92668 5.68468,3.64593 11.36936,8.13946 17.06183,12.14097 5.69247,4.00151 11.39272,7.51101 17.08552,13.06291 5.69279,5.55191 11.37812,13.14622 17.06313,16.73447 5.685,3.58825 11.36968,3.17044 17.05436,2.61315 5.68469,-0.55729 11.36937,-1.25407 17.06184,-2.69739 5.69246,-1.44332 11.39272,-3.63319 17.08519,-2.17088 5.69247,1.46231 11.37715,6.57679 17.06183,10.23376 5.68468,3.65696 11.36936,5.85642 17.05404,5.59058 5.68469,-0.26584 11.36937,-2.99696 17.06184,-6.15185 5.69247,-3.15489 11.39272,-6.73356 17.08519,-10.86606 5.69247,-4.13251 11.37715,-8.81887 17.06183,-13.3059 5.68468,-4.48704 11.36936,-8.77476 17.05405,-10.70866 5.68468,-1.93389 11.36936,-1.51395 17.06183,-1.80841 5.69247,-0.29446 11.39272,-1.30332 17.08519,-3.23731 5.69247,-1.934 11.37715,-4.79313 17.06183,-8.44356 5.68468,-3.65042 11.36937,-8.09213 17.05372,-13.79242 5.68436,-5.70029 11.36839,-12.65915 17.06054,-17.35218 5.69214,-4.69302 11.3924,-7.1202 17.08519,-9.78948 5.69279,-2.66928 11.37812,-5.58066 17.06313,-7.26286 5.68501,-1.68221 11.36969,-2.13522 17.05437,-2.84239 5.68468,-0.70717 11.36936,-1.66848 17.06183,-2.38928 5.69247,-0.72081 11.39272,-1.2011 17.08519,-2.14164 5.69247,-0.94055 11.37715,-2.34135 17.06183,-4.20047 5.68469,-1.85912 11.36937,-4.17656 17.05405,-4.31483 5.68468,-0.13826 11.36936,1.90266 17.06183,4.25166 5.69247,2.349 11.39273,5.00607 17.08519,7.2535 5.69247,2.24743 11.37715,4.08521 17.06184,6.22621 5.68468,2.14099 11.36936,4.5852 14.2117,5.8073 L 785,250.17177 v 7.56577 l -2.84234,-1.40255 c -2.84234,-1.40255 -8.52702,-4.20765 -14.2117,-6.58073 -5.68469,-2.37308 -11.36937,-4.31413 -17.06184,-6.68256 -5.69246,-2.36843 -11.39272,-5.16423 -17.08519,-7.6276 -5.69247,-2.46337 -11.37715,-4.5943 -17.06183,-4.74237 -5.68468,-0.14806 -11.36936,1.68674 -17.05405,3.21771 -5.68468,1.53097 -11.36936,2.75811 -17.06183,3.48609 -5.69247,0.72798 -11.39272,0.95681 -17.08519,1.44358 -5.69247,0.48678 -11.37715,1.23152 -17.06183,1.74537 -5.68468,0.51386 -11.36936,0.79685 -17.05437,2.32423 -5.68501,1.52739 -11.37034,4.29918 -17.06313,6.87807 -5.69279,2.57889 -11.39305,4.96489 -17.08519,9.54333 -5.69215,4.57844 -11.37618,11.34932 -17.06054,16.95385 -5.68435,5.60452 -11.36904,10.04268 -17.05372,13.69984 -5.68468,3.65715 -11.36936,6.5333 -17.06183,8.51877 -5.69247,1.98547 -11.39272,3.08025 -17.08519,3.4351 -5.69247,0.35485 -11.37715,-0.0302 -17.06183,1.93232 -5.68469,1.96256 -11.36937,6.27275 -17.05405,10.82193 -5.68468,4.54919 -11.36936,9.33736 -17.06183,13.509 -5.69247,4.17164 -11.39272,7.72675 -17.08519,10.89847 -5.69247,3.17172 -11.37715,5.96005 -17.06184,6.25955 -5.68468,0.2995 -11.36936,-1.88984 -17.05404,-5.50146 -5.68468,-3.61163 -11.36936,-8.64555 -17.06183,-9.99854 -5.69247,-1.353 -11.39273,0.97492 -17.08519,2.44499 -5.69247,1.47006 -11.37715,2.08227 -17.06184,2.57649 -5.68468,0.49421 -11.36936,0.87044 -17.05436,-2.74558 -5.68501,-3.61602 -11.37034,-11.22428 -17.06313,-16.69252 -5.6928,-5.46825 -11.39305,-8.79647 -17.08552,-12.63351 -5.69247,-3.83703 -11.37715,-8.18287 -17.06183,-11.30817 -5.68469,-3.12529 -11.36937,-5.03003 -17.05405,-7.21478 -5.68468,-2.18475 -11.36936,-4.64952 -17.06151,-5.34929 -5.69214,-0.69976 -11.39175,0.36548 -17.08389,-0.17921 -5.69215,-0.54469 -11.37683,-2.6993 -17.06151,-11.48815 -5.68468,-8.78884 -11.36936,-24.21191 -17.05404,-29.38785 -5.68468,-5.17594 -11.36937,-0.10474 -17.06183,4.48493 -5.69247,4.58966 -11.39273,8.6978 -17.0852,-1.69409 -5.69247,-10.39188 -11.37715,-35.28378 -17.06183,-45.53925 -5.68468,-10.25548 -11.36936,-5.87452 -17.05404,-1.82844 -5.68469,4.04607 -11.36937,7.75726 -17.06184,10.03946 -5.69246,2.28219 -11.39272,3.13539 -17.08519,3.88138 -5.69247,0.74599 -11.37715,1.38477 -17.06183,3.2083 -5.684682,1.82353 -11.369363,4.83181 -17.054045,7.06391 -5.684681,2.23211 -11.369363,3.68804 -17.061831,3.20137 -5.692469,-0.48667 -11.392725,-2.91593 -17.085194,-4.22447 -5.692468,-1.30854 -11.37715,-1.49635 -17.061831,-1.72107 -5.684682,-0.22472 -11.369363,-0.48635 -17.054045,-0.29628 -5.684681,0.19007 -11.3693625,0.83183 -14.2117033,1.15272 L 0,215.94071 Z"
             id="path6"
             fill="#8c564b">
            <title
               id="title6">Vinyl</title>
          </path>
        </g>
        <g
           id="xAxis"
           transform="translate(0,360)"
           font-size="10px"
           font-family="sans-serif"
           text-anchor="middle"
           fill="none">
          <path
             class="domain"
             stroke="currentColor"
             d="M 0,0 H 785"
             id="path7" />
          <g
             class="tick"
             opacity="1"
             transform="translate(34.108089)"
             id="g7">
            <line
               stroke="currentColor"
               y2="6"
               id="line7"
               x1="0"
               y1="0"
               x2="0" />
            <text
               y="9"
               dy="0.70999998em"
               id="text7"
               fill="currentColor">1975</text>
          </g>
          <g
             class="tick"
             opacity="1"
             transform="translate(119.42503)"
             id="g8">
            <line
               stroke="currentColor"
               y2="6"
               id="line8"
               x1="0"
               y1="0"
               x2="0" />
            <text
               y="9"
               dy="0.70999998em"
               id="text8"
               fill="currentColor">1980</text>
          </g>
          <g
             class="tick"
             opacity="1"
             transform="translate(204.7887)"
             id="g9">
            <line
               stroke="currentColor"
               y2="6"
               id="line9"
               x1="0"
               y1="0"
               x2="0" />
            <text
               y="9"
               dy="0.70999998em"
               id="text9"
               fill="currentColor">1985</text>
          </g>
          <g
             class="tick"
             opacity="1"
             transform="translate(290.1037)"
             id="g10">
            <line
               stroke="currentColor"
               y2="6"
               id="line10"
               x1="0"
               y1="0"
               x2="0" />
            <text
               y="9"
               dy="0.70999998em"
               id="text10"
               fill="currentColor">1990</text>
          </g>
          <g
             class="tick"
             opacity="1"
             transform="translate(375.42259)"
             id="g11">
            <line
               stroke="currentColor"
               y2="6"
               id="line11"
               x1="0"
               y1="0"
               x2="0" />
            <text
               y="9"
               dy="0.70999998em"
               id="text11"
               fill="currentColor">1995</text>
          </g>
          <g
             class="tick"
             opacity="1"
             transform="translate(460.73954)"
             id="g12">
            <line
               stroke="currentColor"
               y2="6"
               id="line12"
               x1="0"
               y1="0"
               x2="0" />
            <text
               y="9"
               dy="0.70999998em"
               id="text12"
               fill="currentColor">2000</text>
          </g>
          <g
             class="tick"
             opacity="1"
             transform="translate(546.10321)"
             id="g13">
            <line
               stroke="currentColor"
               y2="6"
               id="line13"
               x1="0"
               y1="0"
               x2="0" />
            <text
               y="9"
               dy="0.70999998em"
               id="text13"
               fill="currentColor">2005</text>
          </g>
          <g
             class="tick"
             opacity="1"
             transform="translate(631.42015)"
             id="g14">
            <line
               stroke="currentColor"
               y2="6"
               id="line14"
               x1="0"
               y1="0"
               x2="0" />
            <text
               y="9"
               dy="0.70999998em"
               id="text14"
               fill="currentColor">2010</text>
          </g>
          <g
             class="tick"
             opacity="1"
             transform="translate(716.7371)"
             id="g15">
            <line
               stroke="currentColor"
               y2="6"
               id="line15"
               x1="0"
               y1="0"
               x2="0" />
            <text
               y="9"
               dy="0.70999998em"
               id="text15"
               fill="currentColor">2015</text>
          </g>
        </g>
        <text
           y="356"
           x="785"
           text-anchor="end"
           style="font-weight:bold;font-size:12px;font-family:Arial, sans-serif;fill:#7b7b7b"
           id="text16">Year</text>
        <text
           x="4"
           text-anchor="start"
           dominant-baseline="hanging"
           style="font-weight:bold;font-size:12px;font-family:Arial, sans-serif;fill:#7b7b7b"
           id="text17">Revenues in millions (Adjusted for inflation)</text>
        <g
           id="labels">
          <text
             x="255.95084"
             y="131.41774"
             text-anchor="middle"
             alignment-baseline="middle"
             style="font-weight:bold;font-size:10px;font-family:Arial, sans-serif;fill:#000000"
             id="text18">Tape</text>
          <text
             x="443.68549"
             y="159.20682"
             text-anchor="middle"
             alignment-baseline="middle"
             style="font-weight:bold;font-size:10px;font-family:Arial, sans-serif;fill:#000000"
             id="text19">Disc</text>
          <text
             x="622.68073"
             y="192.7412"
             text-anchor="middle"
             alignment-baseline="middle"
             style="font-weight:bold;font-size:9.67678px;font-family:Arial, sans-serif;fill:#000000;stroke-width:1.06799997;stroke-dasharray:none;paint-order:stroke fill markers"
             id="text20"
             transform="scale(0.96767796,1.0334017)">Download</text>
          <text
             x="529.00244"
             y="289.93723"
             text-anchor="middle"
             alignment-baseline="middle"
             style="font-weight:bold;font-size:10px;font-family:Arial, sans-serif;fill:#000000"
             id="text21">Other</text>
          <text
             x="785"
             y="158.89796"
             text-anchor="end"
             alignment-baseline="middle"
             style="font-weight:bold;font-size:10px;font-family:Arial, sans-serif;fill:#000000"
             id="text22">Streaming</text>
          <text
             x="85.316948"
             y="137.89294"
             text-anchor="middle"
             alignment-baseline="middle"
             style="font-weight:bold;font-size:10px;font-family:Arial, sans-serif;fill:#000000"
             id="text23">Vinyl</text>
        </g>
      </g>
      <text
         x="4"
         y="4"
         style="font-family: Arial, sans-serif; font-size: 12px; fill: black; font-weight: bold; dominant-baseline: hanging;"
         id="text24" />
    </g>
  </g>
</svg>
